<?xml version="1.0" encoding="UTF-8"?> <svg xmlns="http://www.w3.org/2000/svg" id="图层_1" data-name="图层 1" viewBox="0 0 1024 1024"><defs><style>.cls-1{fill:#f1f2f2;}.cls-2{fill:none;stroke:#000;stroke-miterlimit:10;stroke-width:1.86px;}.cls-3{fill:#221e1f;}</style></defs><polygon class="cls-1" points="759.01 265.36 513.23 513 759.01 758.86 759.01 265.36"></polygon><polygon class="cls-1" points="267.02 267.19 265.51 758.86 512.88 510.43 267.02 267.19"></polygon><rect class="cls-2" x="265.51" y="265.36" width="493.5" height="493.5"></rect><polygon class="cls-3" points="511.38 511.22 265.1 758.46 265.29 758.64 265.51 758.86 513.16 512.99 511.38 511.22"></polygon><polygon class="cls-3" points="513.15 513.01 759.01 266.29 758.83 266.1 758.6 265.88 511.36 511.23 513.15 513.01"></polygon><polygon class="cls-3" points="513.15 511.22 759.42 758.46 759.24 758.64 759.01 758.86 511.36 512.99 513.15 511.22"></polygon><polygon class="cls-3" points="511.38 513.01 265.33 265.55 265.51 265.36 265.74 265.14 513.16 511.23 511.38 513.01"></polygon></svg> 