<?xml version="1.0" encoding="UTF-8"?> <svg xmlns="http://www.w3.org/2000/svg" id="图层_1" data-name="图层 1" viewBox="0 0 1024 1024"><defs><style>.cls-1{fill:#f1f2f2;}.cls-2{fill:none;stroke:#000;stroke-miterlimit:10;stroke-width:1.86px;}.cls-3{fill:#221e1f;}</style></defs><polygon class="cls-1" points="18.53 758.75 18.53 265.25 264.23 512 18.53 758.75"></polygon><polygon class="cls-1" points="1005.53 758.75 1005.53 265.25 759.84 512 1005.53 758.75"></polygon><rect class="cls-2" x="18.38" y="265.25" width="987.79" height="493.5"></rect><line class="cls-2" x1="263.95" y1="512" x2="760.59" y2="512"></line><polygon class="cls-3" points="262.73 511.06 18.12 758.34 18.31 758.53 18.53 758.75 264.52 512.84 262.73 511.06"></polygon><polygon class="cls-3" points="263.56 513.77 17.96 265.66 18.15 265.47 18.38 265.25 265.35 512 263.56 513.77"></polygon><polygon class="cls-3" points="760.92 511.06 1005.53 758.34 1005.35 758.53 1005.12 758.75 759.14 512.84 760.92 511.06"></polygon><polygon class="cls-3" points="760.96 513.77 1006.56 265.66 1006.37 265.47 1006.15 265.25 759.17 512 760.96 513.77"></polygon></svg> 