<?xml version="1.0" encoding="UTF-8"?> <svg xmlns="http://www.w3.org/2000/svg" id="图层_1" data-name="图层 1" viewBox="0 0 1024 1024"><defs><style>.cls-1{fill:#f1f2f2;}.cls-2{fill:none;stroke:#000;stroke-miterlimit:10;stroke-width:1.86px;}.cls-3{fill:#221e1f;}</style></defs><polygon class="cls-1" points="129.75 758.75 129.75 265.25 375.44 512 129.75 758.75"></polygon><polygon class="cls-1" points="894.23 758.75 894.23 265.25 648.54 512 894.23 758.75"></polygon><rect class="cls-2" x="129.75" y="265.25" width="764.51" height="493.5"></rect><line class="cls-2" x1="375.32" y1="512" x2="648.67" y2="512"></line><polygon class="cls-3" points="374.1 511.06 129.49 758.34 129.68 758.53 129.9 758.75 375.89 512.84 374.1 511.06"></polygon><polygon class="cls-3" points="374.94 513.77 129.34 265.66 129.52 265.47 129.75 265.25 376.72 512 374.94 513.77"></polygon><polygon class="cls-3" points="649.01 511.06 893.62 758.34 893.44 758.53 893.21 758.75 647.23 512.84 649.01 511.06"></polygon><polygon class="cls-3" points="649.04 513.77 894.64 265.66 894.46 265.47 894.23 265.25 647.26 512 649.04 513.77"></polygon></svg> 