<?xml version="1.0" encoding="UTF-8"?> <svg xmlns="http://www.w3.org/2000/svg" id="图层_1" data-name="图层 1" viewBox="0 0 1024 1024"><defs><style>.cls-1{fill:#fff;stroke:#221e1f;stroke-linejoin:round;stroke-width:0.1px;}.cls-2{fill:#dadcdd;}.cls-3{fill:#f1f2f2;}.cls-4{fill:none;stroke:#000;stroke-miterlimit:10;stroke-width:1.87px;}.cls-5{fill:#221e1f;}</style></defs><rect class="cls-1" x="129.44" y="129.69" width="764.32" height="764.32"></rect><rect class="cls-2" x="334.22" y="336.04" width="355.04" height="351.61"></rect><polygon class="cls-3" points="360.67 511.85 334.22 687.66 129.71 894.01 129.71 129.69 334.22 336.04 360.67 511.85"></polygon><polygon class="cls-3" points="662.8 511.85 689.26 687.66 893.76 894.01 893.76 129.69 689.26 336.04 662.8 511.85"></polygon><rect class="cls-4" x="129.44" y="129.69" width="764.32" height="764.32"></rect><polyline class="cls-4" points="360.67 511.85 334.22 687.66 689.26 687.66 661.06 511.85"></polyline><polygon class="cls-4" points="661.06 511.85 661.06 511.85 360.67 511.85 334.22 336.04 689.26 336.04 661.06 511.85"></polygon><polygon class="cls-5" points="333.32 336.93 129.26 129.87 129.44 129.69 129.67 129.47 335.1 335.16 333.32 336.93"></polygon><polygon class="cls-5" points="333.32 686.81 129.26 893.87 129.44 894.05 129.67 894.28 335.1 688.58 333.32 686.81"></polygon><polygon class="cls-5" points="689.7 686.81 893.76 893.87 893.57 894.05 893.35 894.28 687.91 688.58 689.7 686.81"></polygon><polygon class="cls-5" points="689.7 336.93 893.76 129.87 893.57 129.69 893.35 129.47 687.91 335.16 689.7 336.93"></polygon></svg> 