<?xml version="1.0" encoding="utf-8"?>
<!-- Generator: Adobe Illustrator 24.0.0, SVG Export Plug-In . SVG Version: 6.00 Build 0)  -->
<svg version="1.1" id="图层_1" xmlns="http://www.w3.org/2000/svg" xmlns:xlink="http://www.w3.org/1999/xlink" x="0px" y="0px"
	 viewBox="0 0 220 110" style="enable-background:new 0 0 220 110;" xml:space="preserve">
<style type="text/css">
	.st0{fill:#FFFFFF;stroke:#2A3B4B;stroke-width:0.1919;stroke-miterlimit:10;}
	.st1{fill:none;stroke:#2A3B4B;stroke-width:0.1919;stroke-miterlimit:10;}
	.st2{fill:none;stroke:#2A3B4B;stroke-width:0.1923;stroke-linecap:round;stroke-linejoin:round;stroke-miterlimit:10;}
	.st3{fill:#FFFFFF;stroke:#2A3B4B;stroke-width:9.156506e-02;stroke-miterlimit:10;}
	.st4{fill:#2A3B4B;}
	.st5{fill:#FFFFFF;}
	.st6{fill:none;stroke:#2A3B4B;stroke-width:0.1923;stroke-miterlimit:10;stroke-dasharray:1.5744;}
	.st7{fill:#FFFFFF;stroke:#2A3B4B;stroke-width:0.1945;stroke-miterlimit:10;}
	.st8{fill:#FFFFFF;stroke:#2A3B4B;stroke-width:0.1946;stroke-miterlimit:10;}
</style>
<g>
	<rect x="108.9" y="38.8" class="st0" width="1.6" height="29.2"/>
	<path class="st0" d="M110.4,73.8c0.5-0.1,0.5-0.2,0.5-0.3c0-0.1,0.2-2.3,0.2-2.3c0.1-1.3,0.1-2.9,0.1-3c0-0.1,0-0.2-0.8-0.4
		c-1,0.2-1.5,0-1.5,0c-0.8,0.2-0.8,0.3-0.8,0.4c0,0.1,0,1.7,0.1,3c0,0,0.2,2.2,0.2,2.3c0,0.1,0,0.2,0.5,0.3
		C108.9,73.8,109.6,74,110.4,73.8z"/>
	<path class="st0" d="M110.6,68.8c-0.1,0.1-0.2,0.2-0.2,0.6c0,0.3,0,0.4,0.1,0.6c0.1,0.2,0.1,0.4,0.2,0.6c0.1,0.3,0.3,1.6,0.4,2.3
		c0,0.8,0,1.2,0.2,1.2s0,0,0.5,0.1s0.7,0.2,0.8,0.1c0.1,0,0.3-0.1,0.3-0.4s-0.2-0.4-0.2-0.4h-0.8c0,0,0.1-0.9,0-1.9
		c-0.1-1.1-0.1-1.5-0.1-1.6c0-0.1,0.2-0.2,0.2-0.7c0-0.5-0.3-0.6-0.4-0.7C111.3,68.6,110.9,68.5,110.6,68.8z"/>
	<path class="st0" d="M111.8,69.4c0,0.4-0.1,0.7-0.4,0.7c-0.2,0-0.5-0.3-0.5-0.7s0.2-0.7,0.4-0.7C111.6,68.7,111.8,69.1,111.8,69.4z
		"/>
	<path class="st0" d="M111.8,69.4c0,0.3-0.1,0.6-0.3,0.6c-0.2,0-0.4-0.3-0.4-0.6s0.1-0.6,0.3-0.6C111.6,68.9,111.8,69.2,111.8,69.4z
		"/>
	<path class="st1" d="M111,69.7c0,0,0,0.5,0.1,0.8c0.1,0.3,0.2,1.2,0.2,2c0.1,0.8,0,1.3,0,1.4c0,0,0-0.2,0.4-0.3"/>
	<path class="st0" d="M108.1,70.8c0,0,1.1-0.1,2.6-0.1"/>
	<path class="st0" d="M108.1,68.3c0,0,1-0.3,3.2,0"/>
	<path class="st0" d="M108.3,73.5c0,0,0.5,0.2,2.6,0"/>
	<path class="st2" d="M110.6,70.2c0,0-0.3-0.3-0.3-0.9c0-0.7,0.7-0.7,0.7-0.7s-0.3,0-0.3,0c0,0-0.6,0.2-0.6,0.8
		c0,0.7,0.6,1.2,0.6,1.2"/>
	<path class="st3" d="M108.9,66.3l0.2,0c0,0,0,0.2,0.1,0.4l-0.2,0C109,66.7,109,66.4,108.9,66.3z"/>
	<path class="st3" d="M108.9,66.3L108.9,66.3l0.3-0.1c0,0,0,0.3,0,0.4"/>
	<line class="st3" x1="109.2" y1="66.3" x2="109.2" y2="66.2"/>
	<path class="st3" d="M109,66.8v-0.4V66.8z"/>
	<path class="st3" d="M109,66.3v-0.2c0,0,0.1,0,0.2,0s0.1,0,0.1,0.1s0,0.5,0,0.5c0,0-0.4,0.1-0.4,0.1l0.1,0c0,0,0.2,0,0.3,0
		c0.1,0,0.1,0,0.1-0.2c0-0.2,0-0.3,0-0.3c0-0.1-0.1-0.1-0.1-0.1"/>
	<rect x="108.9" y="73.8" class="st0" width="1.6" height="17.9"/>
	<ellipse class="st0" cx="109.7" cy="38" rx="0.3" ry="0.4"/>
	<circle class="st0" cx="109.7" cy="36.8" r="0.2"/>
	<g>
		<g>
			<rect x="111.6" y="91.9" class="st4" width="0.4" height="2.6"/>
			
				<rect x="111" y="92.7" transform="matrix(6.123234e-17 -1 1 6.123234e-17 17.8864 204.4039)" class="st4" width="0.4" height="1.2"/>
		</g>
		<g>
			<rect x="111.6" y="102.4" class="st4" width="0.4" height="2.6"/>
			
				<rect x="111" y="103.1" transform="matrix(6.123234e-17 -1 1 6.123234e-17 7.4242 214.8661)" class="st4" width="0.4" height="1.2"/>
		</g>
		<g>
			<rect x="108.7" y="90.4" class="st4" width="2.1" height="17.2"/>
		</g>
		<g>
			<rect x="99.5" y="107.6" class="st4" width="20.4" height="0.7"/>
		</g>
	</g>
	<g>
		<path class="st0" d="M104.7,29.8l4.8,8.3c0,0,1-0.2,1.2-1l-4.8-8.2"/>
		<path class="st0" d="M108.4,36.2c0,0,0.8-0.3,1.3-0.8"/>
		<g>
			<path class="st5" d="M111,36.2c0,0-0.8-0.3-1.3-0.8"/>
			<path class="st6" d="M111,36.2c0,0-0.8-0.3-1.3-0.8"/>
		</g>
		<path class="st7" d="M108.9,38.9c0,0,0-1.3,0-1.5s0-1.2,0.7-1.4c0.6-0.2,0.8,0.3,0.8,1s0,2,0,2S109.8,38.7,108.9,38.9z"/>
		<ellipse class="st0" cx="110" cy="38.1" rx="0.3" ry="0.4"/>
		<circle class="st0" cx="109.9" cy="36.9" r="0.2"/>
		<path class="st8" d="M110.5,68.1h-1.6V38.9c0,0,0.4-0.1,0.8-0.1c0.5,0,0.8,0.1,0.8,0.1V68.1z"/>
	</g>
	<g>
		<path class="st0" d="M152.7,1.2c-6.2,2.4-6.5,4.3-6.5,4.3c-11.1,5.2-40.7,24.2-40.7,24.2c-10.5,4.8-41.5,24-41.5,24
			c-3,0.3-8,3.8-8,3.8c6.2-7.7,32.4-35,32.4-35s0.2-0.2,0-0.3c-0.2-0.1-0.5-0.6-0.3-0.6c0.2,0,1.1,0.6,1,0.2
			c-0.1-0.4-0.1-0.6,0.3-0.6c0.4-0.1-0.1,0.1,0.4-0.1c0.5-0.2,0.5,0,0.9-0.2c0.4-0.3,0.5-0.3,0.9-0.4c0.4-0.1,0.9-0.2,1.1-0.9
			c0.2-0.7-0.3-1.2,0.4-1.2c0.6,0,0.9,0.1,1.2-0.2s0.4,0.3,0.7,0c0.3-0.3,0.8-0.5,1.6-0.8c0,0,0.7-0.6,0.9-0.9
			c0.2-0.3,0.2-0.6,0.7-0.8s1.5-0.5,1.8-0.8s0.7-1.2,0.8-1.3c0.1-0.1,0.6,0.2,0.9,0.2c0.3,0,0.4,0.2,0.7-0.2
			c0.3-0.4,0.4-0.6,0.7-0.5c0.4,0.1,0.7,0.2,0.9-0.5c0.1-0.7-0.1-1.5,0.3-1.2c0.4,0.3,0.7,1.2,0.7,1.2S143.4,2.6,152.7,1.2z"/>
		<path class="st0" d="M104,11c-0.1,0.1,0,0.7-0.1,1.2c-0.1,0.7-0.5,0.6-0.9,0.5c-0.4-0.1-0.4,0.1-0.7,0.5c-0.3,0.4-0.4,0.2-0.7,0.2
			c-0.3,0-0.7-0.3-0.9-0.2c-0.1,0.1-0.5,1.1-0.8,1.3s-1.3,0.6-1.8,0.8s-0.5,0.5-0.7,0.8c-0.2,0.3-0.9,0.9-0.9,0.9
			c-0.7,0.3-1.3,0.5-1.6,0.8c-0.3,0.3-0.5-0.3-0.7,0s-0.6,0.2-1.2,0.2c-0.6,0-0.2,0.5-0.4,1.2c-0.2,0.7-0.7,0.8-1.1,0.9
			c-0.4,0.1-0.5,0.2-0.9,0.4c-0.4,0.3-0.4,0.1-0.9,0.2c-0.5,0.2,0,0-0.4,0.1c-0.4,0.1-0.4,0.2-0.3,0.6c0.1,0.4-0.8-0.2-1-0.2
			c0,0,0.3-0.3,0.6-0.5c0.3-0.2,1.2-0.5,1.6-1s2.8-3.5,3.5-4.1c0,0,0.2-0.2,0.6-0.4s1.9-1.2,2.1-1.3c0.2-0.1,0.5-0.4,0.7-0.4
			c0.2,0,0.3,0,0.5-0.1c0.1-0.1,0.1-0.1,0.7-0.6c0.6-0.5,0.8-0.6,1.2-0.3c0.4,0.3,0.7,0,1.2-0.2c0,0,0.5-0.5,0.8-0.3
			c0.2,0.1,0.3-0.3,0.6-0.5C102.6,11.5,104,11,104,11z"/>
		<path class="st0" d="M64.1,53.6c0,0,22.6-29,26.3-32.9"/>
		<line class="st0" x1="105.6" y1="29.6" x2="96.9" y2="16.7"/>
		<path class="st0" d="M146.3,5.4c0,0-37.8,6.4-44,7.8"/>
		<path class="st4" d="M93.8,15.8l3.4-2.1l0.5-0.1l0.1-0.6l-0.5-0.7c0,0-0.1-0.3-0.8,0c-0.7,0.3-3.1,1.8-3.4,2
			c-0.2,0.2-0.5,0.4-0.2,0.8c0.3,0.4,0.3,0.4,0.3,0.4L93.8,15.8z"/>
	</g>
</g>
</svg>
