<?xml version="1.0" encoding="utf-8"?>
<!-- Generator: Adobe Illustrator 24.0.0, SVG Export Plug-In . SVG Version: 6.00 Build 0)  -->
<svg version="1.1" id="图层_1" xmlns="http://www.w3.org/2000/svg" xmlns:xlink="http://www.w3.org/1999/xlink" x="0px" y="0px"
	 viewBox="0 0 220 110" style="enable-background:new 0 0 220 110;" xml:space="preserve">
<style type="text/css">
	.st0{fill:#FFFFFF;stroke:#2A3B4B;stroke-width:0.2033;stroke-miterlimit:10;}
	.st1{fill:#FFFFFF;stroke:#2A3B4B;stroke-width:0.2037;stroke-miterlimit:10;}
	.st2{fill:#FFFFFF;stroke:#2A3B4B;stroke-width:0.203;stroke-miterlimit:10;}
	.st3{fill:#2A3B4B;}
</style>
<g>
	<g>
		<path class="st0" d="M113.9,3.7h-7.3c-0.3,0-0.6-0.3-0.6-0.6c0-0.2,0.1-0.5,0.4-0.6c1.2-0.5,2.5-0.8,3.8-0.9h0.2
			c1.3,0.1,2.6,0.3,3.8,0.9c0.2,0.1,0.4,0.3,0.4,0.5l0,0C114.5,3.4,114.2,3.7,113.9,3.7z"/>
	</g>
	<path class="st1" d="M184.2,31.8l-70.5-15v-0.2c-0.1-0.6-0.6-1-1.1-0.9l-2.1,0.5l-2.5-0.5c-0.5-0.1-1,0.3-1.1,0.9l-0.1,0.4L36.3,32
		c-0.5,0.1-0.8,0.6-0.7,1.2l0.1,0.8c0.1,0.6,0.5,1,1,0.8l73.7-15.6l73.3,15.6c0.5,0.1,0.9-0.3,1-0.8l0.1-0.8
		C185,32.4,184.6,31.9,184.2,31.8z"/>
	<rect x="108.9" y="3.4" class="st2" width="2.7" height="102.6"/>
	<path class="st0" d="M110.6,35.6h-0.5c-0.6,0-1-0.5-1-1v-1.9c0-0.5,0.4-1,1-1h0.4c0.6,0,1,0.5,1,1v1.9
		C111.5,35.2,111.1,35.6,110.6,35.6z"/>
	<path class="st3" d="M112.6,107.6v-4.1c0-0.2-0.2-0.4-0.4-0.4h-3.9c-0.2,0-0.4,0.2-0.4,0.4v4.1h-5.7v1.1h16v-1.1H112.6z"/>
	<polygon class="st0" points="114.4,86.5 113.2,86.6 113.2,79.9 112.8,79.9 112.8,78.8 111.6,78.8 111.6,81.4 112.8,81.4 
		112.8,80.3 112.8,80.3 112.8,86.9 113.2,86.9 113.2,86.9 114.4,86.9 	"/>
	<path class="st1" d="M110.5,33c37.8-4.9,73.8-1.2,73.8-1.2l0,0c0,0-30.7-5-69.9-28.5h-8C67.2,26.7,36.5,31.8,36.5,31.8l0,0
		c0,0,36-3.7,73.8,1.2H110.5z"/>
</g>
</svg>
