<?xml version="1.0" encoding="utf-8"?>
<!-- Generator: Adobe Illustrator 24.3.0, SVG Export Plug-In . SVG Version: 6.00 Build 0)  -->
<svg version="1.1" id="图层_1" xmlns="http://www.w3.org/2000/svg" xmlns:xlink="http://www.w3.org/1999/xlink" x="0px" y="0px"
	 viewBox="0 0 2000 1000" style="enable-background:new 0 0 2000 1000;" xml:space="preserve">
<style type="text/css">
	.st0{fill:#32BDBB;}
	.st1{fill:#FFFFFF;}
</style>
<g>
	<g>
		<path class="st0" d="M-2465.07,671.01l744.05-507.51l113.45-348.32C-1607.58-184.82-1948.47,299.5-2465.07,671.01z"/>
		<path class="st0" d="M-1629.68,1189.75l-91.3-1000.72L-2490,709.23C-2490,709.23-1983.54,422.75-1629.68,1189.75z"/>
		<path class="st0" d="M-588.47-85.34l-1107.91,241.3l110.21-345.71C-1586.17-189.75-1649.72,9.6-588.47-85.34z"/>
		<path class="st0" d="M-1609.07,1182.24l-91.57-1003.65L-550-72.02C-550-72.02-1629.68,313.93-1609.07,1182.24z"/>
	</g>
</g>
<g>
	<path class="st0" d="M55.14,583.55l363.53-247.96L474.1,165.4C474.1,165.4,307.55,402.04,55.14,583.55z"/>
	<path class="st0" d="M463.31,837L418.7,348.06L42.96,602.23C42.96,602.23,290.42,462.25,463.31,837z"/>
	<path class="st0" d="M972.03,214.01l-541.31,117.9L484.56,163C484.56,163,453.51,260.4,972.03,214.01z"/>
	<path class="st0" d="M473.37,833.33l-44.74-490.37l562.19-122.45C990.82,220.52,463.31,409.09,473.37,833.33z"/>
</g>
<g>
	<g>
		<path class="st1" d="M841.04,535.39c0-2.85-0.71-4.73-2.14-5.66c-1.43-0.92-3.48-1.46-6.16-1.63c-5.36-0.33-9.01-1.13-10.93-2.39
			c-1.93-1.26-2.89-3.48-2.89-6.66c0-3.02,0.96-5.15,2.89-6.41c1.92-1.26,5.57-1.89,10.93-1.89h64.1c2.85,0,5.23,0.42,7.16,1.26
			c1.92,0.84,2.89,2.93,2.89,6.28c0,2.85-1.13,4.69-3.39,5.53c-2.26,0.84-4.24,1.26-5.91,1.26c-1.34,0-3.14,0.09-5.4,0.25
			c-2.26,0.17-4.61,0.34-7.04,0.5c-2.43,0.17-4.61,0.34-6.54,0.5c-1.93,0.17-3.23,0.25-3.9,0.25c-6.87,0.67-10.98,3.86-12.32,9.55
			c-3.69,14.75-7.12,28.2-10.31,40.35c-3.18,12.15-6.49,24.51-9.93,37.07c-3.44,12.57-7.16,26.14-11.18,40.72
			s-8.71,31.76-14.08,51.53c-0.84,2.85-2.22,5.11-4.15,6.79c-1.93,1.67-4.99,2.51-9.17,2.51c-2.85,0-5.74-0.59-8.67-1.76
			c-2.94-1.17-4.9-3.86-5.91-8.04c-2.51-10.72-5.15-21.66-7.92-32.8c-2.76-11.14-5.53-21.99-8.29-32.55s-5.4-20.48-7.92-29.79
			c-2.51-9.3-4.74-17.55-6.66-24.76c-1.93-7.2-3.52-13.11-4.77-17.72c-1.26-4.6-1.89-7.41-1.89-8.42
			c-4.36,14.75-8.71,29.91-13.07,45.5c-3.86,13.41-8.09,28.28-12.69,44.62c-4.61,16.34-9.09,32.39-13.45,48.14
			c-0.84,2.68-2.1,4.73-3.77,6.16c-1.68,1.42-4.7,2.14-9.05,2.14c-3.86,0-6.58-0.76-8.17-2.26c-1.59-1.51-2.73-3.27-3.39-5.28
			c-4.36-14.08-8.63-27.98-12.82-41.73c-4.19-13.74-8.5-27.86-12.94-42.35c-4.44-14.49-9.01-29.45-13.7-44.87
			c-4.69-15.42-9.8-31.76-15.33-49.02c-0.84-2.85-2.64-4.9-5.4-6.16c-2.77-1.26-7.33-2.22-13.7-2.89c-5.2-0.5-8.67-1.42-10.43-2.77
			c-1.76-1.34-2.64-3.43-2.64-6.28c0-2.51,1-4.31,3.02-5.4c2.01-1.09,4.6-1.63,7.79-1.63h62.59c3.02,0,5.15,0.67,6.41,2.01
			c1.26,1.34,1.89,2.93,1.89,4.77c0,3.35-1.38,5.57-4.15,6.66c-2.77,1.09-5.78,1.89-9.05,2.39c-3.27,0.5-6.28,1.05-9.05,1.63
			c-2.77,0.59-4.15,1.89-4.15,3.9c0,1.68,0.71,5.15,2.14,10.43c1.42,5.28,3.27,11.81,5.53,19.61c2.26,7.79,4.94,16.55,8.04,26.27
			c3.1,9.72,6.28,19.86,9.55,30.42c3.27,10.56,6.54,21.24,9.8,32.05c3.27,10.81,6.32,21.16,9.17,31.04
			c5.53-21.45,10.72-41.39,15.58-59.82c2.01-7.88,4.06-15.79,6.16-23.75c2.09-7.96,4.1-15.5,6.03-22.62
			c1.92-7.12,3.64-13.49,5.15-19.1c1.51-5.61,2.77-9.93,3.77-12.95c1.17-3.85,2.68-7.45,4.53-10.81c1.84-3.35,5.19-5.03,10.05-5.03
			c3.85,0,6.74,0.97,8.67,2.89c1.92,1.93,3.65,6.25,5.15,12.94c4.19,18.6,8.13,35.07,11.81,49.4c3.69,14.33,7.12,27.32,10.31,38.96
			c3.18,11.65,6.12,22.33,8.8,32.05c2.68,9.72,5.19,19.1,7.54,28.15c1-5.53,2.64-12.65,4.9-21.37c2.26-8.71,4.77-18.01,7.54-27.9
			c2.77-9.89,5.57-19.94,8.42-30.16c2.85-10.22,5.49-19.65,7.92-28.28c2.43-8.63,4.4-15.96,5.91-22
			C840.29,540.93,841.04,537.07,841.04,535.39z"/>
		<path class="st1" d="M923.99,643.98c-0.17,0.34-0.25,0.8-0.25,1.38c0,0.59,0,1.05,0,1.38c0,4.52,0.5,9.13,1.51,13.82
			c1.01,4.7,2.89,8.93,5.66,12.7c2.77,3.77,6.49,6.83,11.18,9.17c4.69,2.35,10.72,3.52,18.1,3.52c4.53,0,8.42-0.67,11.69-2.01
			c3.27-1.34,6.03-3.06,8.3-5.15c2.26-2.09,4.1-4.4,5.53-6.91c1.42-2.51,2.55-4.86,3.39-7.04c1-2.68,2.43-4.9,4.27-6.66
			c1.84-1.76,4.19-2.64,7.04-2.64c3.18,0,5.69,0.63,7.54,1.89c1.84,1.26,2.77,3.98,2.77,8.17c0,2.68-0.75,6.24-2.26,10.68
			c-1.51,4.44-4.23,8.8-8.17,13.07c-3.94,4.27-9.26,7.96-15.96,11.06c-6.71,3.1-15.25,4.65-25.64,4.65
			c-9.22,0-17.43-1.42-24.63-4.27c-7.21-2.85-13.32-6.87-18.35-12.07c-5.03-5.19-8.84-11.52-11.44-18.98
			c-2.6-7.45-3.9-15.87-3.9-25.26c0-9.89,1.38-18.73,4.14-26.52c2.77-7.79,6.75-14.41,11.94-19.86c5.19-5.44,11.35-9.59,18.48-12.44
			c7.12-2.85,15.12-4.27,24-4.27c10.06,0,18.48,1.63,25.26,4.9c6.79,3.27,12.19,7.29,16.21,12.07s6.91,9.76,8.67,14.96
			c1.76,5.19,2.64,9.72,2.64,13.57c0,3.35-0.5,6.2-1.51,8.55c-1.01,2.35-2.77,4.19-5.28,5.53c-1.17,0.67-2.48,1.17-3.9,1.51
			c-1.43,0.34-3.27,0.59-5.53,0.76s-5.03,0.29-8.3,0.37c-3.27,0.09-7.16,0.13-11.69,0.13c-0.67,0-2.35,0-5.03,0s-5.87,0-9.55,0
			c-3.69,0-7.63,0.04-11.81,0.13c-4.19,0.09-8.09,0.13-11.69,0.13c-3.61,0-6.66,0-9.17,0S924.32,643.98,923.99,643.98z
			 M983.06,628.15c3.01,0,4.52-2.01,4.52-6.03c0-2.18-0.54-4.53-1.63-7.04c-1.09-2.51-2.76-4.86-5.03-7.04
			c-2.26-2.18-5.28-4.02-9.05-5.53s-8.26-2.26-13.45-2.26c-5.2,0-9.8,0.84-13.83,2.51c-4.02,1.68-7.5,3.9-10.43,6.66
			c-2.94,2.77-5.2,5.87-6.79,9.3c-1.59,3.44-2.64,6.91-3.14,10.43L983.06,628.15z"/>
		<path class="st1" d="M1047.4,695.76c0.16,1.34,0.25,2.52,0.25,3.52c0,1,0,2.01,0,3.01c0,1.68-0.84,3.23-2.51,4.65
			c-1.68,1.42-4.02,2.14-7.04,2.14c-3.86,0-6.28-0.84-7.29-2.51c-1-1.68-1.51-3.69-1.51-6.03c0-3.02,0.08-5.69,0.25-8.04
			c0.16-2.35,0.25-4.69,0.25-7.04c0-3.35-0.17-6.7-0.5-10.05c-0.34-3.35-0.5-7.04-0.5-11.06c0-5.53,3.35-8.29,10.06-8.29
			c1.84,0,3.47,0.71,4.9,2.14c1.42,1.43,2.3,2.98,2.64,4.65c0.33,1.68,0.83,3.77,1.51,6.28c0.67,2.51,2.17,5.7,4.52,9.55
			c2.18,3.35,5.53,6.16,10.05,8.42c4.53,2.26,10.47,3.39,17.85,3.39c5.53,0,10.34-0.88,14.45-2.64c4.1-1.76,6.16-4.81,6.16-9.17
			c0-1.51-0.3-3.02-0.88-4.53c-0.59-1.51-1.8-3.06-3.64-4.65c-1.85-1.59-4.52-3.14-8.04-4.65c-3.52-1.51-8.21-3.02-14.08-4.52
			c-4.36-1.01-8.97-2.3-13.82-3.9c-4.86-1.59-9.3-3.86-13.32-6.79c-4.02-2.93-7.38-6.66-10.05-11.19
			c-2.68-4.52-4.02-10.31-4.02-17.34c0-6.2,1.13-11.48,3.39-15.84c2.26-4.36,5.24-7.92,8.93-10.68c3.68-2.77,7.87-4.77,12.57-6.03
			c4.69-1.26,9.55-1.88,14.58-1.88c5.03,0,9.3,0.5,12.82,1.51c3.52,1,6.49,2.35,8.92,4.02c2.43,1.68,4.4,3.48,5.91,5.4
			c1.51,1.93,2.77,3.73,3.77,5.4c-0.17-2.17-0.29-4.44-0.38-6.78c-0.08-2.35-0.12-3.77-0.12-4.27c0-4.19,1.09-6.87,3.27-8.04
			c2.18-1.17,4.44-1.76,6.79-1.76c2.68,0,4.86,0.76,6.54,2.26c1.67,1.51,2.51,5.19,2.51,11.06c0,2.85-0.04,5.95-0.13,9.3
			c-0.09,3.35-0.21,6.62-0.38,9.8c-0.17,3.18-0.34,6.08-0.5,8.67c-0.17,2.6-0.34,4.49-0.5,5.66c-0.34,2.85-1.05,5.19-2.14,7.04
			c-1.09,1.85-3.06,2.77-5.91,2.77c-2.18,0-4.15-0.79-5.91-2.39c-1.76-1.59-2.81-3.31-3.14-5.15c-0.67-3.02-1.63-5.91-2.89-8.67
			c-1.26-2.76-2.55-5.06-3.9-6.91c-1.51-2.35-3.94-4.69-7.29-7.04c-3.35-2.34-8.46-3.52-15.33-3.52c-7.38,0-12.48,1.43-15.33,4.27
			c-2.85,2.85-4.27,6.37-4.27,10.56c0,3.35,0.67,6.16,2.01,8.42c1.34,2.26,3.06,4.19,5.15,5.78c2.09,1.59,4.4,2.85,6.91,3.77
			c2.51,0.92,4.86,1.72,7.04,2.39c5.19,1.51,10.6,3.02,16.21,4.52c5.61,1.51,10.77,3.52,15.46,6.03c4.69,2.51,8.5,5.74,11.44,9.68
			c2.93,3.94,4.4,9.09,4.4,15.46c0,5.87-1.22,10.81-3.64,14.83c-2.43,4.02-5.66,7.38-9.68,10.06c-4.02,2.68-8.67,4.6-13.95,5.78
			c-5.28,1.17-10.77,1.76-16.46,1.76c-5.7,0-11.31-0.76-16.84-2.26C1057.45,704.56,1052.26,701.13,1047.4,695.76z"/>
		<path class="st1" d="M1159.25,603.01c-3.19,0-6.79,0.09-10.81,0.25c-4.02,0.17-7.54,0.25-10.56,0.25c-2.18,0-4.23-0.63-6.16-1.89
			c-1.92-1.26-2.89-3.98-2.89-8.17c0-3.18,1.09-5.36,3.27-6.54c2.18-1.17,4.52-1.92,7.04-2.26l12.82-1.76
			c2.51-0.33,4.4-0.96,5.66-1.89c1.26-0.92,1.97-2.64,2.14-5.15c0.33-4.02,0.63-8.13,0.88-12.31c0.25-4.19,0.88-7.63,1.88-10.31
			c1.84-5.19,4.77-7.79,8.8-7.79c2.68,0,5.15,0.67,7.42,2.01c2.26,1.34,3.39,4.52,3.39,9.55v25.39c1,0,2.89-0.04,5.66-0.13
			c2.76-0.08,5.74-0.21,8.92-0.37c3.18-0.17,6.16-0.29,8.92-0.38c2.77-0.08,4.56-0.13,5.4-0.13c2.01,0,4.31,0.75,6.91,2.26
			c2.6,1.51,3.9,4.02,3.9,7.54c0,3.19-1,5.49-3.01,6.91c-2.01,1.43-3.86,2.22-5.53,2.39c-5.2,0.34-10.48,0.67-15.84,1.01
			c-5.36,0.34-10.48,0.67-15.33,1v60.83c0,8.38,0.84,14.04,2.51,16.97c1.67,2.94,4.36,4.4,8.04,4.4c3.68,0,6.28-0.92,7.79-2.77
			c1.51-1.84,2.93-5.44,4.27-10.81c0.67-2.85,1.76-4.77,3.27-5.78c1.51-1.01,3.69-1.51,6.54-1.51c3.02,0,5.15,0.8,6.41,2.39
			c1.26,1.59,1.88,3.81,1.88,6.66c0,4.36-0.71,8.42-2.14,12.19c-1.43,3.77-3.61,7.08-6.54,9.93c-2.93,2.85-6.54,5.11-10.81,6.79
			c-4.27,1.67-9.26,2.51-14.96,2.51c-10.56,0-18.1-3.43-22.62-10.31c-1.68-2.51-2.98-5.28-3.9-8.3c-0.92-3.02-1.63-6.03-2.14-9.05
			c-0.5-3.02-0.8-5.95-0.88-8.8c-0.08-2.85-0.13-5.45-0.13-7.79L1159.25,603.01z"/>
		<path class="st1" d="M1309.56,680.18c0.5,6.03,0.79,10.31,0.88,12.82c0.08,2.51,0.13,4.61,0.13,6.28c0,2.85-0.96,5.28-2.89,7.29
			c-1.93,2.01-4.65,3.02-8.17,3.02c-3.86,0-6.54-1.13-8.04-3.4c-1.51-2.26-2.26-4.57-2.26-6.91c0-0.67,0.04-1.97,0.13-3.9
			c0.08-1.92,0.21-4.15,0.37-6.66c0.17-2.51,0.29-5.15,0.38-7.92c0.08-2.77,0.13-5.32,0.13-7.67c0-3.35-0.09-7.04-0.25-11.06
			c-0.17-4.02-0.25-7.29-0.25-9.8c0-1.68,0.08-3.65,0.25-5.91c0.17-2.26,0.59-4.31,1.26-6.16c0.67-1.84,1.67-3.43,3.02-4.77
			c1.34-1.34,3.18-2.01,5.53-2.01c2.85,0,5.03,0.84,6.54,2.51c1.51,1.68,2.68,3.64,3.52,5.91c0.83,2.26,1.42,4.57,1.76,6.91
			c0.33,2.35,0.67,4.27,1.01,5.78c0.83,3.18,2.6,6.62,5.28,10.31c2.68,3.69,6.16,7.08,10.43,10.18c4.27,3.1,9.21,5.7,14.83,7.79
			c5.61,2.1,11.69,3.14,18.22,3.14c10.56,0,18.81-2.3,24.76-6.91c5.95-4.61,8.92-10.01,8.92-16.21c0-4.69-1.59-8.8-4.77-12.32
			c-3.19-3.52-7.42-6.83-12.7-9.93c-5.28-3.1-11.27-6.07-17.97-8.93c-6.7-2.85-13.57-5.86-20.61-9.05
			c-5.03-2.34-10.31-5.11-15.83-8.29c-5.53-3.18-10.56-7.17-15.08-11.94c-4.52-4.77-8.26-10.6-11.18-17.47
			c-2.94-6.87-4.4-15.08-4.4-24.63c0-10.56,1.84-20.11,5.53-28.66c3.69-8.55,8.59-15.84,14.71-21.87
			c6.11-6.03,13.23-10.64,21.36-13.83c8.13-3.18,16.63-4.78,25.51-4.78c9.89,0,17.93,2.31,24.13,6.91
			c6.2,4.61,11.47,12.69,15.83,24.26c-0.34-4.69-0.63-8.33-0.88-10.93c-0.25-2.6-0.42-4.52-0.5-5.78c-0.09-1.26-0.17-2.14-0.25-2.64
			c-0.09-0.5-0.13-1.01-0.13-1.51c0-1,0.13-2.09,0.37-3.27c0.25-1.17,0.76-2.3,1.51-3.39c0.76-1.09,1.89-1.97,3.4-2.64
			c1.51-0.67,3.43-1,5.78-1c2.51,0,4.44,0.42,5.78,1.26c1.34,0.84,2.34,1.85,3.01,3.02c0.67,1.17,1.09,2.43,1.26,3.77
			c0.17,1.34,0.25,2.51,0.25,3.52c0,4.19-0.17,9.6-0.5,16.21c-0.34,6.62-0.5,13.11-0.5,19.48c0,4.52,0.08,9.51,0.25,14.95
			c0.16,5.45,0.25,10.77,0.25,15.96c0,5.7-3.35,8.55-10.06,8.55c-2.51,0-4.52-0.46-6.03-1.38c-1.51-0.92-2.64-2.09-3.39-3.52
			c-0.76-1.42-1.26-3.01-1.51-4.77c-0.25-1.76-0.46-3.48-0.63-5.15c-0.67-7.71-2.01-14.74-4.02-21.12
			c-2.01-6.37-4.65-11.85-7.91-16.46c-3.27-4.61-7.17-8.21-11.69-10.81c-4.53-2.6-9.64-3.9-15.34-3.9c-5.36,0-10.6,1.13-15.71,3.39
			c-5.11,2.26-9.68,5.45-13.7,9.55c-4.02,4.11-7.25,9.14-9.68,15.08c-2.43,5.95-3.64,12.69-3.64,20.24c0,6.2,0.83,11.56,2.51,16.09
			c1.67,4.52,3.85,8.42,6.54,11.69c2.68,3.27,5.69,5.99,9.05,8.17c3.35,2.18,6.78,4.02,10.31,5.53c3.35,1.51,7.5,3.19,12.44,5.03
			c4.94,1.85,10.18,3.98,15.71,6.41c5.53,2.43,11.06,5.28,16.59,8.54c5.53,3.27,10.47,7,14.83,11.18
			c4.36,4.19,7.92,8.97,10.68,14.33s4.15,11.4,4.15,18.1c0,7.21-1.59,13.41-4.77,18.6c-3.19,5.2-7.38,9.51-12.57,12.95
			c-5.19,3.44-11.02,5.94-17.47,7.54c-6.45,1.59-13.03,2.39-19.73,2.39c-10.56,0-20.57-1.89-30.04-5.66
			C1324.09,696.14,1316.09,689.57,1309.56,680.18z"/>
		<path class="st1" d="M1451.82,701.55c-4.86,0-8.71-0.5-11.56-1.51c-2.85-1-4.27-3.6-4.27-7.79c0-2.68,0.84-4.73,2.51-6.16
			c1.68-1.42,3.69-2.3,6.03-2.64c2.68-0.33,4.56-1.59,5.65-3.77c1.09-2.18,1.63-6.2,1.63-12.07c0-5.19,0.08-13.15,0.25-23.88
			c0.16-10.72,0.33-24.8,0.5-42.23c0.16-13.24,0.29-24.3,0.37-33.18c0.08-8.88,0.13-16.34,0.13-22.37c0-6.03,0-10.97,0-14.83
			c0-3.85,0-7.46,0-10.81c0-1.84-0.25-3.56-0.75-5.15c-0.5-1.59-1.43-2.39-2.77-2.39h-7.79c-5.03,0-9.3-0.54-12.82-1.63
			c-3.52-1.09-5.28-3.31-5.28-6.66c0-2.68,2.89-4.98,8.67-6.91c5.78-1.92,15.63-2.89,29.53-2.89c5.86,0,9.72,0.46,11.56,1.38
			c1.84,0.92,2.77,3.14,2.77,6.66V618.1c1.51-3.52,3.73-6.79,6.66-9.8c2.93-3.01,6.28-5.61,10.05-7.79
			c3.77-2.18,7.87-3.9,12.32-5.15c4.44-1.26,8.83-1.88,13.2-1.88c7.7,0,14.03,1.17,18.98,3.52c4.94,2.35,8.83,7.04,11.69,14.08
			c1.17,3.02,2.22,8.13,3.14,15.34c0.92,7.21,1.38,16.59,1.38,28.15v42.23h15.33c3.68,0,7,0.54,9.93,1.63
			c2.93,1.09,4.4,3.73,4.4,7.92c0,3.35-1.09,5.74-3.27,7.17c-2.18,1.42-4.61,2.14-7.29,2.14c-2.18,0-5.24,0.08-9.17,0.25
			c-3.94,0.16-7.08,0.25-9.43,0.25c-1.34,0-3.27,0.04-5.78,0.13c-2.51,0.08-5.7,0.13-9.55,0.13c-7.71,0-13.24-0.46-16.59-1.38
			c-3.35-0.92-5.03-3.06-5.03-6.41c0-5.03,1.84-8.21,5.53-9.55c1.67-0.67,2.97-1.3,3.9-1.89c0.92-0.58,1.63-1.34,2.14-2.26
			c0.5-0.92,0.83-2.09,1-3.52c0.16-1.42,0.33-3.14,0.5-5.15c0.17-1.84,0.29-4.31,0.38-7.42c0.08-3.1,0.16-6.41,0.25-9.93
			c0.08-3.52,0.16-7.08,0.25-10.68c0.08-3.6,0.13-6.83,0.13-9.68c0-5.03-0.09-9.17-0.25-12.44c-0.17-3.27-0.5-6.03-1-8.3
			c-0.5-2.26-1.13-4.06-1.89-5.4c-0.75-1.34-1.72-2.51-2.89-3.52c-1-0.83-2.43-1.63-4.27-2.39c-1.85-0.75-4.27-1.13-7.29-1.13
			c-5.03,0-9.8,1.13-14.33,3.39c-4.52,2.26-8.54,5.28-12.06,9.05c-3.52,3.77-6.33,8.09-8.42,12.95c-2.1,4.86-3.14,9.89-3.14,15.08
			v26.39h18.1c4.52,0,7.75,0.71,9.68,2.14c1.92,1.43,2.89,4.15,2.89,8.17c0,3.52-1,5.82-3.02,6.91c-2.01,1.09-5.03,1.63-9.05,1.63
			c-1.68,0-4.49,0.04-8.42,0.13c-3.94,0.09-7.84,0.13-11.69,0.13c-3.35,0-6.16,0-8.42,0c-2.26,0-4.19,0.04-5.78,0.13
			c-1.59,0.09-3.02,0.13-4.27,0.13S1453.16,701.55,1451.82,701.55z"/>
		<path class="st1" d="M1662.45,635.94c0-5.19-0.42-9.88-1.26-14.08c-0.84-4.19-2.26-7.79-4.27-10.81
			c-2.01-3.01-4.69-5.32-8.04-6.91c-3.35-1.59-7.63-2.39-12.82-2.39c-3.35,0-6.58,0.34-9.68,1.01c-3.1,0.67-5.82,1.55-8.17,2.64
			c-2.35,1.09-4.23,2.39-5.65,3.9c-1.43,1.51-2.14,3.01-2.14,4.52c0,1.34,0.38,2.22,1.13,2.64c0.75,0.42,1.29,0.71,1.63,0.88
			c3.35,1.51,5.03,4.19,5.03,8.04c0,3.69-1.34,6.2-4.02,7.54c-2.68,1.34-5.45,2.01-8.3,2.01c-2.85,0-5.24-0.54-7.16-1.63
			c-1.93-1.09-3.48-2.51-4.65-4.27c-1.17-1.76-1.97-3.64-2.39-5.65c-0.42-2.01-0.63-4.02-0.63-6.03c0-4.69,1.13-9.05,3.4-13.07
			c2.26-4.02,5.44-7.45,9.55-10.31c4.1-2.85,9.05-5.11,14.83-6.78c5.78-1.68,12.19-2.52,19.23-2.52c16.25,0,28.15,4.27,35.69,12.82
			c7.54,8.54,11.31,20.7,11.31,36.45c0,2.01-0.04,4.61-0.13,7.79c-0.09,3.18-0.21,6.49-0.38,9.93c-0.17,3.44-0.3,6.79-0.38,10.05
			c-0.09,3.27-0.13,6.16-0.13,8.67c0,6.2,0.09,10.14,0.25,11.81c0.17,1.68,0.84,2.51,2.01,2.51c0.83,0,1.42-0.29,1.76-0.88
			c0.33-0.59,0.5-1.3,0.5-2.14c0.16-1.84,0.59-3.52,1.26-5.03c0.67-1.51,2.68-2.26,6.03-2.26c2.51,0,4.48,0.67,5.91,2.01
			c1.42,1.34,2.14,3.94,2.14,7.79c0,6.88-2.01,11.94-6.03,15.21c-4.02,3.27-9.05,4.9-15.08,4.9c-4.36,0-8.34-1-11.94-3.02
			c-3.61-2.01-6.25-5.95-7.92-11.81c-5.37,4.86-11.35,8.55-17.97,11.06c-6.62,2.51-13.87,3.77-21.74,3.77
			c-11.73,0-21.08-2.64-28.03-7.92c-6.95-5.28-10.43-12.44-10.43-21.49c0-9.55,3.98-17.47,11.94-23.75
			c7.96-6.29,19.06-9.43,33.3-9.43c6.03,0,11.65,0.67,16.84,2.01c5.19,1.34,10.39,3.61,15.58,6.79V635.94z M1607.91,673.9
			c0,4.36,1.8,7.67,5.4,9.93c3.6,2.26,9.34,3.39,17.22,3.39c5.69,0,10.51-0.59,14.45-1.76c3.93-1.17,7.12-2.55,9.55-4.15
			c2.43-1.59,4.19-3.35,5.28-5.28c1.09-1.93,1.63-3.65,1.63-5.16c0-3.52-2.56-6.66-7.67-9.42c-5.11-2.77-11.86-4.15-20.23-4.15
			c-9.39,0-16.01,1.72-19.86,5.15C1609.83,665.9,1607.91,669.71,1607.91,673.9z"/>
		<path class="st1" d="M1819.8,682.44c0,3.35,0.46,5.36,1.38,6.03c0.92,0.67,1.89,1,2.89,1c6.03,0.34,10.89,0.92,14.58,1.76
			c3.68,0.84,5.53,3.44,5.53,7.79c0,3.52-1.22,6.07-3.64,7.67c-2.43,1.59-5.07,2.39-7.92,2.39c-2.35,0-4.9,0-7.67,0
			s-5.49-0.04-8.17-0.13c-2.68-0.09-5.03-0.17-7.04-0.25c-2.01-0.09-3.44-0.21-4.27-0.38c-3.35-0.5-5.7-1.72-7.04-3.64
			c-1.34-1.93-2.1-5.4-2.26-10.43l-0.5-13.57c-1.85,3.86-4.23,7.21-7.17,10.05c-2.93,2.85-6.28,5.24-10.05,7.17
			c-3.77,1.93-7.79,3.39-12.06,4.4c-4.27,1.01-8.59,1.51-12.94,1.51c-8.89,0-16.38-1.85-22.5-5.53
			c-6.12-3.69-11.06-8.34-14.83-13.95c-3.77-5.61-6.49-11.77-8.17-18.48c-1.68-6.7-2.51-13.07-2.51-19.1
			c0-3.02,0.25-6.74,0.75-11.19c0.5-4.44,1.46-9.09,2.89-13.95c1.42-4.86,3.39-9.68,5.91-14.45c2.51-4.77,5.74-9.05,9.68-12.82
			c3.93-3.77,8.75-6.83,14.45-9.17c5.69-2.34,12.4-3.52,20.11-3.52c5.03,0,9.51,0.46,13.45,1.38c3.93,0.92,7.45,2.14,10.55,3.64
			c3.1,1.51,5.74,3.18,7.92,5.03c2.18,1.85,3.94,3.61,5.28,5.28v-73.4c0-3.85-1.05-6.24-3.14-7.16c-2.1-0.92-4.9-1.38-8.42-1.38
			c-1.51,0-3.23,0.04-5.15,0.13c-1.93,0.09-3.9,0.13-5.91,0.13c-2.01,0-3.98,0.04-5.91,0.13c-1.93,0.09-3.48,0.13-4.65,0.13
			c-5.36,0-8.04-1.67-8.04-5.03c0-2.34,0.5-4.31,1.51-5.91c1-1.59,3.02-2.85,6.03-3.77c3.02-0.92,7.37-1.59,13.07-2.01
			c5.69-0.42,13.23-0.63,22.62-0.63c6.54,0,11.77,0.42,15.71,1.26c3.93,0.84,5.91,3.61,5.91,8.3c0,3.02,0,7.67,0,13.95
			c0,6.29-0.04,13.37-0.13,21.24c-0.09,7.88-0.17,16.05-0.25,24.51c-0.09,8.46-0.17,16.34-0.25,23.63
			c-0.08,7.29-0.12,13.57-0.12,18.85c0,5.28,0,8.59,0,9.93c0.16,6.2,0.25,12.74,0.25,19.61c0,5.87,0,12.53,0,19.98
			C1819.55,666.9,1819.63,674.57,1819.8,682.44z M1761.74,684.71c11.06,0,19.69-3.81,25.89-11.44c6.2-7.63,9.3-18.89,9.3-33.81
			c0-2.85-0.21-6.03-0.63-9.55c-0.42-3.52-1.38-7.04-2.89-10.56c-0.84-1.67-1.93-3.56-3.27-5.66c-1.34-2.09-3.14-4.02-5.4-5.78
			c-2.26-1.76-5.03-3.23-8.29-4.4c-3.27-1.17-7.17-1.76-11.69-1.76c-6.2,0-11.52,1.13-15.96,3.4c-4.44,2.26-8.13,5.4-11.06,9.43
			c-2.94,4.02-5.11,8.71-6.54,14.08c-1.43,5.36-2.14,11.15-2.14,17.34c0,7.71,0.96,14.08,2.89,19.1c1.92,5.03,4.44,8.97,7.54,11.81
			c3.1,2.85,6.62,4.86,10.56,6.03C1753.99,684.12,1757.88,684.71,1761.74,684.71z"/>
		<path class="st1" d="M1869.31,643.98c-0.17,0.34-0.25,0.8-0.25,1.38c0,0.59,0,1.05,0,1.38c0,4.52,0.5,9.13,1.51,13.82
			c1,4.7,2.89,8.93,5.65,12.7c2.77,3.77,6.49,6.83,11.19,9.17c4.69,2.35,10.72,3.52,18.1,3.52c4.52,0,8.42-0.67,11.69-2.01
			c3.27-1.34,6.03-3.06,8.29-5.15c2.26-2.09,4.1-4.4,5.53-6.91c1.42-2.51,2.55-4.86,3.39-7.04c1-2.68,2.43-4.9,4.27-6.66
			c1.84-1.76,4.19-2.64,7.04-2.64c3.18,0,5.7,0.63,7.54,1.89c1.84,1.26,2.76,3.98,2.76,8.17c0,2.68-0.75,6.24-2.26,10.68
			c-1.51,4.44-4.23,8.8-8.17,13.07c-3.94,4.27-9.26,7.96-15.96,11.06c-6.71,3.1-15.25,4.65-25.64,4.65
			c-9.22,0-17.43-1.42-24.63-4.27c-7.21-2.85-13.32-6.87-18.35-12.07c-5.03-5.19-8.84-11.52-11.44-18.98
			c-2.6-7.45-3.9-15.87-3.9-25.26c0-9.89,1.38-18.73,4.15-26.52c2.77-7.79,6.74-14.41,11.94-19.86c5.19-5.44,11.35-9.59,18.48-12.44
			c7.12-2.85,15.12-4.27,24.01-4.27c10.05,0,18.47,1.63,25.26,4.9c6.79,3.27,12.19,7.29,16.21,12.07c4.02,4.77,6.91,9.76,8.67,14.96
			c1.76,5.19,2.64,9.72,2.64,13.57c0,3.35-0.5,6.2-1.51,8.55s-2.77,4.19-5.28,5.53c-1.17,0.67-2.48,1.17-3.9,1.51
			c-1.43,0.34-3.27,0.59-5.53,0.76c-2.26,0.17-5.03,0.29-8.29,0.37c-3.27,0.09-7.17,0.13-11.69,0.13c-0.67,0-2.35,0-5.03,0
			c-2.68,0-5.87,0-9.55,0c-3.69,0-7.63,0.04-11.81,0.13c-4.19,0.09-8.09,0.13-11.69,0.13c-3.6,0-6.66,0-9.17,0
			C1871.07,643.98,1869.65,643.98,1869.31,643.98z M1928.38,628.15c3.02,0,4.52-2.01,4.52-6.03c0-2.18-0.54-4.53-1.63-7.04
			c-1.09-2.51-2.77-4.86-5.03-7.04c-2.26-2.18-5.28-4.02-9.05-5.53c-3.77-1.51-8.26-2.26-13.45-2.26c-5.2,0-9.8,0.84-13.82,2.51
			c-4.02,1.68-7.5,3.9-10.43,6.66c-2.94,2.77-5.2,5.87-6.79,9.3c-1.59,3.44-2.64,6.91-3.14,10.43L1928.38,628.15z"/>
	</g>
</g>
<g>
	<path class="st1" d="M895.22,834.26H870.1c-6.46,0-11.81-2.24-16.04-6.71c-4.23-4.47-6.35-10.11-6.35-16.93
		c0-6.77,2.09-12.24,6.28-16.39c4.19-4.15,9.56-6.23,16.11-6.23h25.11v8.06H870.1c-4.25,0-7.75,1.42-10.51,4.26
		c-2.76,2.85-4.13,6.5-4.13,10.97c0,4.43,1.37,8.02,4.13,10.77c2.75,2.76,6.26,4.13,10.51,4.13h25.11V834.26z"/>
	<path class="st1" d="M959.7,834.26l-9.99-0.07l-7.43-12.94h-21.1l4.67-8.06h11.74l-7.7-13.29l-20.04,34.35h-9.94l24.14-41.85
		c0.61-1.08,1.46-2.08,2.54-2.98c1.3-1.04,2.48-1.56,3.51-1.56c1.13,0,2.3,0.5,3.51,1.49c1.04,0.86,1.89,1.87,2.54,3.05
		L959.7,834.26z"/>
	<path class="st1" d="M1007.85,830.26c0,2.98-0.98,4.47-2.94,4.47c-1.44,0-3.05-0.92-4.83-2.76l-28.48-29.81v32.09h-7.68V792
		c0-1.09,0.28-2.02,0.84-2.81c0.57-0.79,1.37-1.18,2.41-1.18c1.43,0,2.91,0.79,4.43,2.37l28.5,29.73V788h7.74V830.26z"/>
	<path class="st1" d="M1074.41,810.62c0,6.82-2.1,12.46-6.31,16.93c-4.21,4.47-9.57,6.71-16.07,6.71h-12.43
		c-6.46,0-11.81-2.24-16.04-6.71c-4.23-4.47-6.34-10.11-6.34-16.93c0-6.77,2.09-12.24,6.28-16.39c4.19-4.15,9.55-6.23,16.1-6.23
		h12.43c6.6,0,11.97,2.08,16.14,6.23S1074.41,803.85,1074.41,810.62z M1066.73,811.3c0-4.47-1.38-8.13-4.13-10.97
		c-2.76-2.84-6.28-4.26-10.58-4.26h-12.43c-4.25,0-7.75,1.42-10.51,4.26c-2.76,2.85-4.13,6.5-4.13,10.97
		c0,4.43,1.38,8.02,4.13,10.77c2.75,2.76,6.26,4.13,10.51,4.13h12.43c4.3,0,7.82-1.38,10.58-4.13
		C1065.36,819.31,1066.73,815.72,1066.73,811.3z"/>
	<path class="st1" d="M1129.65,804.66c0,5.06-1.78,9.14-5.34,12.26c-3.29,2.89-7.44,4.33-12.43,4.33h-19.58v-8.06h20.83
		c2.56,0,4.71-0.78,6.44-2.36c1.74-1.57,2.6-3.67,2.6-6.28c0-2.6-0.87-4.67-2.6-6.2c-1.73-1.53-3.88-2.29-6.44-2.29h-25.38v38.2
		h-7.74V788h31.88c4.99,0,9.13,1.47,12.43,4.4C1127.88,795.47,1129.65,799.56,1129.65,804.66z"/>
	<path class="st1" d="M1183.79,788l-22.06,30.95v15.31h-7.68v-15.44L1131.41,788h10l16.66,22.68l15.68-22.68H1183.79z"/>
	<path class="st1" d="M1247.72,834.26h-7.37l-4.57-5.56c-3.39,4.23-7.88,6.26-13.47,6.09c-3.73,0-6.86-0.79-9.4-2.38
		c-2.71-2.29-4.15-5.56-4.32-9.79c0-3.53,0.68-6.35,2.03-8.47c1.52-2.29,4.32-4.59,8.39-6.88c-2.03-2.65-3.31-4.59-3.81-5.82
		c-0.68-1.41-1.02-3.08-1.02-5.03c0.51-6.7,4.23-10.23,11.18-10.58c6.44,0.18,9.91,3.44,10.42,9.79c0.17,4.94-2.63,9.17-8.39,12.7
		l8.39,10.85c0.84-2.47,1.44-5.03,1.78-7.67h5.59c-0.34,4.23-1.61,8.29-3.81,12.17L1247.72,834.26z M1222.3,811.5
		c-3.22,1.94-5.25,3.62-6.1,5.03c-1.19,1.41-1.78,3.27-1.78,5.56c0.17,4.76,2.96,7.5,8.39,8.2c4.23,0,7.63-1.85,10.17-5.56
		L1222.3,811.5z M1230.18,796.16c0-3.53-1.69-5.29-5.08-5.29c-3.39,0-5.17,1.76-5.34,5.29c0,2.47,1.52,5.29,4.57,8.47
		C1228.24,801.98,1230.18,799.16,1230.18,796.16z"/>
	<path class="st1" d="M1323.76,813.46c0,7.45-2.15,12.89-6.44,16.32c-3.77,2.98-9.37,4.47-16.79,4.47h-2.67
		c-7.42,0-13.01-1.49-16.79-4.47c-4.29-3.43-6.44-8.87-6.44-16.32V788h7.74v25.46c0,5.56,1.85,9.23,5.53,11.04
		c2.39,1.13,6.6,1.69,12.62,1.69c5.03,0,8.72-0.79,11.06-2.37c2.95-1.98,4.43-5.44,4.43-10.36V788h7.74V813.46z"/>
	<path class="st1" d="M1399.49,834.33h-8.72l-6.44-32.37l-14.9,29.87c-1,2.03-2.39,3.05-4.16,3.05c-2,0-3.52-1.04-4.55-3.12
		l-14.9-29.8l-6.38,32.37h-8.78l9.92-42.47c0.26-1.22,0.83-2.28,1.72-3.18s1.91-1.35,3.08-1.35c1.68,0,3.28,1.52,4.8,4.57
		l14.88,30.34l14.93-30.37c1.51-3.03,3.12-4.54,4.82-4.54c1.12,0,2.17,0.47,3.12,1.42c0.83,0.86,1.39,1.9,1.69,3.11L1399.49,834.33z
		"/>
	<path class="st1" d="M1457.67,820.78c0,1.99-0.48,3.86-1.43,5.62c-2.86,5.19-8.29,7.79-16.27,7.79h-31.88v-46.26h31.88
		c7.59,0,12.91,2.46,15.94,7.38c1.17,1.99,1.76,4.11,1.76,6.37c0,3.84-1.56,7.06-4.69,9.68
		C1456.1,813.89,1457.67,817.03,1457.67,820.78z M1450.18,801.61c0-1.94-1.08-3.43-3.25-4.47c-1.69-0.77-3.62-1.15-5.79-1.15h-25.31
		v30.14h25.31c2.13,0,4.01-0.34,5.66-1.02c2.26-0.99,3.38-2.42,3.38-4.27c0-1.9-1.13-3.34-3.38-4.33c-1.69-0.72-3.58-1.08-5.66-1.08
		h-20.76v-8.06h20.76c2.17,0,4.1-0.41,5.79-1.22C1449.1,805.11,1450.18,803.6,1450.18,801.61z"/>
	<path class="st1" d="M1517.78,834.26h-11.38l-12.43-13h-16.72v-8.06h20.82c2.86,0,5.27-0.65,7.22-1.96
		c2.21-1.53,3.32-3.71,3.32-6.54c0-5.76-3.51-8.64-10.54-8.64h-25.38v38.2h-7.74V788h31.88c5.73,0,10.35,1.29,13.86,3.87
		c4.04,2.94,6.05,7.26,6.05,12.96c0,3.89-1.18,7.24-3.53,10.04c-2.18,2.62-5.14,4.46-8.89,5.5L1517.78,834.26z"/>
	<path class="st1" d="M1563.47,834.26h-38.39V788h38.39v8.06h-30.65v30.14h30.65V834.26z M1561.45,814.82h-25.37v-8.06h25.37V814.82
		z"/>
	<path class="st1" d="M1608.36,834.26h-38.32V788h7.74v38.2h30.58V834.26z"/>
	<path class="st1" d="M1650.53,834.26h-38.33V788h7.75v38.2h30.58V834.26z"/>
	<path class="st1" d="M1713.44,834.26l-9.99-0.07l-7.43-12.94h-21.1l4.67-8.06h11.74l-7.7-13.29l-20.04,34.35h-9.95l24.14-41.85
		c0.6-1.08,1.45-2.08,2.54-2.98c1.3-1.04,2.47-1.56,3.51-1.56c1.13,0,2.3,0.5,3.51,1.49c1.04,0.86,1.89,1.87,2.54,3.05
		L1713.44,834.26z"/>
</g>
</svg>
