<?xml version="1.0" encoding="utf-8"?>
<!-- Generator: Adobe Illustrator 24.0.0, SVG Export Plug-In . SVG Version: 6.00 Build 0)  -->
<svg version="1.1" id="图层_1" xmlns="http://www.w3.org/2000/svg" xmlns:xlink="http://www.w3.org/1999/xlink" x="0px" y="0px"
	 viewBox="0 0 220 110" style="enable-background:new 0 0 220 110;" xml:space="preserve">
<style type="text/css">
	.st0{fill:#2A3B4B;}
	.st1{fill:#2A3B4B;stroke:#2A3B4B;stroke-width:0.243;stroke-miterlimit:10;}
	.st2{fill:none;stroke:#2A3B4B;stroke-width:0.2041;stroke-miterlimit:10;}
	.st3{fill:#FFFFFF;stroke:#2A3B4B;stroke-width:0.2041;stroke-linecap:round;stroke-linejoin:round;stroke-miterlimit:10;}
	.st4{fill:none;stroke:#2A3B4B;stroke-width:0.2041;stroke-linecap:round;stroke-linejoin:round;stroke-miterlimit:10;}
</style>
<g>
	<g>
		<g>
			<rect x="112.3" y="91.2" class="st0" width="0.4" height="2.7"/>
			
				<rect x="111.6" y="92" transform="matrix(6.123234e-17 -1 1 6.123234e-17 19.1575 204.4528)" class="st0" width="0.4" height="1.2"/>
		</g>
		<g>
			<rect x="112.3" y="102.1" class="st0" width="0.4" height="2.7"/>
			
				<rect x="111.6" y="102.9" transform="matrix(6.123234e-17 -1 1 6.123234e-17 8.2563 215.354)" class="st0" width="0.4" height="1.2"/>
		</g>
		<g>
			<rect x="109.2" y="89.7" class="st1" width="2.1" height="17.9"/>
		</g>
		<g>
			<rect x="99.6" y="107.6" class="st0" width="21.3" height="0.8"/>
		</g>
	</g>
	<g>
		<polyline class="st2" points="109.3,24 109.3,24 109.4,24 109.4,24.1 109.4,24.1 109.4,24.1 109.4,24.2 109.4,24.2 109.4,24.2 
			109.3,24.2 		"/>
		<polyline class="st2" points="111.3,24.2 111.3,24.2 111.2,24.2 111.2,24.2 111.2,24.2 111.2,24.1 111.2,24.1 111.2,24.1 
			111.2,24 111.3,24 		"/>
		<polyline class="st2" points="109.3,27.2 109.3,27.2 109.4,27.3 109.4,27.3 109.4,27.3 109.4,27.4 109.4,27.4 109.4,27.4 
			109.3,27.5 		"/>
		<polyline class="st2" points="111.3,27.5 111.3,27.5 111.2,27.4 111.2,27.4 111.2,27.4 111.2,27.3 111.2,27.3 111.2,27.3 
			111.3,27.2 		"/>
		<polyline class="st2" points="109.3,28.6 109.3,28.6 109.4,28.6 		"/>
		<line class="st2" x1="111.2" y1="28.6" x2="111.3" y2="28.6"/>
		<polyline class="st2" points="109.4,31.3 109.4,31.3 109.4,31.4 109.4,31.4 109.4,31.4 109.3,31.4 109.3,31.5 		"/>
		<polyline class="st2" points="111.3,31.5 111.3,31.5 111.3,31.4 111.2,31.4 111.2,31.4 111.2,31.4 111.2,31.3 		"/>
		<polyline class="st2" points="109.3,32.6 109.3,32.6 109.4,32.6 109.4,32.6 109.4,32.7 109.4,32.7 109.4,32.7 109.4,32.8 
			109.4,32.8 109.3,32.8 		"/>
		<polyline class="st2" points="111.3,32.8 111.3,32.8 111.2,32.8 111.2,32.8 111.2,32.7 111.2,32.7 111.2,32.7 111.2,32.6 
			111.2,32.6 111.3,32.6 		"/>
		<polyline class="st2" points="109.3,33.9 109.3,33.9 109.4,33.9 109.4,34 109.4,34 109.4,34 109.4,34.1 109.4,34.1 109.3,34.1 		
			"/>
		<polyline class="st2" points="111.3,34.1 111.3,34.1 111.2,34.1 111.2,34.1 111.2,34 111.2,34 111.2,34 111.2,33.9 111.3,33.9 		
			"/>
		<polyline class="st2" points="109.3,34.1 109.3,101.3 111.3,101.3 		"/>
		<line class="st2" x1="109.3" y1="33.9" x2="109.3" y2="32.8"/>
		<line class="st2" x1="109.3" y1="32.6" x2="109.3" y2="31.5"/>
		<line class="st2" x1="109.3" y1="28.6" x2="109.3" y2="27.5"/>
		<line class="st2" x1="109.3" y1="27.2" x2="109.3" y2="24.2"/>
		<line class="st2" x1="109.3" y1="24" x2="109.3" y2="10.3"/>
		<line class="st2" x1="111.3" y1="101.3" x2="111.3" y2="34.1"/>
		<line class="st2" x1="111.3" y1="33.9" x2="111.3" y2="32.8"/>
		<line class="st2" x1="111.3" y1="32.6" x2="111.3" y2="31.5"/>
		<line class="st2" x1="111.3" y1="28.6" x2="111.3" y2="27.5"/>
		<line class="st2" x1="111.3" y1="27.2" x2="111.3" y2="24.2"/>
		<line class="st2" x1="111.3" y1="24" x2="111.3" y2="10.3"/>
		<polyline class="st2" points="109.7,8.2 109.7,8.2 109.7,8.2 109.6,8.2 109.6,8.2 109.6,8.2 109.6,8.1 109.6,8.1 109.6,8.1 
			109.6,8 109.6,8 109.6,8 109.6,7.9 109.6,7.9 109.7,7.9 109.7,7.9 109.7,7.9 109.8,7.9 109.8,7.9 109.8,8 109.8,8 109.8,8 
			109.8,8.1 109.8,8.1 109.8,8.1 109.7,8.1 109.7,8.2 		"/>
		<line class="st2" x1="108.2" y1="8.9" x2="108.6" y2="8.9"/>
		<line class="st2" x1="108.6" y1="9.4" x2="108.7" y2="9.4"/>
		<line class="st2" x1="109.8" y1="9.4" x2="109.9" y2="9.4"/>
		<line class="st2" x1="109.9" y1="9.2" x2="109.9" y2="8.9"/>
		<polyline class="st2" points="109.9,8.9 109.9,8.9 109.9,8.9 110,8.9 110,8.9 		"/>
		<line class="st2" x1="110" y1="8.9" x2="110.6" y2="8.9"/>
		<polyline class="st2" points="110.6,8.9 110.6,8.9 110.6,8.9 110.6,8.9 		"/>
		<polyline class="st2" points="110.6,8.9 110.6,9.4 110.7,9.4 		"/>
		<line class="st2" x1="111.9" y1="9.4" x2="112" y2="9.4"/>
		<line class="st2" x1="112" y1="8.9" x2="112.4" y2="8.9"/>
		<line class="st2" x1="113" y1="9.4" x2="113" y2="9.4"/>
		<polyline class="st2" points="108.6,8.9 108.6,8.9 108.6,8.9 108.6,8.9 		"/>
		<line class="st2" x1="108.6" y1="8.9" x2="108.6" y2="9.4"/>
		<line class="st2" x1="112" y1="9.4" x2="112" y2="8.9"/>
		<polyline class="st2" points="112,8.9 112,8.9 112,8.9 112,8.9 		"/>
		<line class="st2" x1="113" y1="9.4" x2="113" y2="8.9"/>
		<polyline class="st2" points="113,8.8 113,8.8 113,8.8 113,8.9 113,8.9 		"/>
		<path class="st2" d="M113,8.8C113,8.8,113.1,8.8,113,8.8"/>
		<line class="st2" x1="113" y1="8.9" x2="113" y2="8.9"/>
		<line class="st2" x1="113" y1="8.9" x2="113" y2="8.9"/>
		<line class="st2" x1="107.6" y1="9.4" x2="107.6" y2="9.4"/>
		<path class="st2" d="M107.5,8.8C107.5,8.8,107.5,8.8,107.5,8.8"/>
		<polyline class="st2" points="107.6,8.9 107.6,8.9 107.6,8.8 107.6,8.8 		"/>
		<line class="st2" x1="107.6" y1="8.9" x2="107.6" y2="9.4"/>
		<line class="st2" x1="108.7" y1="9.4" x2="109.8" y2="9.4"/>
		<line class="st2" x1="110.7" y1="9.4" x2="111.9" y2="9.4"/>
		<line class="st2" x1="113" y1="9.4" x2="113" y2="9.4"/>
		<line class="st2" x1="107.6" y1="9.4" x2="107.6" y2="9.4"/>
		<line class="st2" x1="108.6" y1="8.2" x2="107.7" y2="8.5"/>
		<line class="st2" x1="112" y1="8.2" x2="112.9" y2="8.5"/>
		<line class="st2" x1="113.1" y1="8.8" x2="113.1" y2="8.8"/>
		<line class="st2" x1="107.5" y1="8.8" x2="107.5" y2="8.8"/>
		<line class="st2" x1="111.6" y1="7.6" x2="111.6" y2="7.7"/>
		<line class="st2" x1="109" y1="7.6" x2="109" y2="7.7"/>
		<line class="st2" x1="110.6" y1="9.4" x2="110.6" y2="9.4"/>
		<line class="st2" x1="109.1" y1="7.5" x2="111.5" y2="7.5"/>
		<path class="st2" d="M109.1,7.6C109,7.6,109,7.6,109.1,7.6"/>
		<path class="st2" d="M111.6,7.7C111.6,7.6,111.6,7.6,111.6,7.7"/>
		<path class="st2" d="M108.6,8.2C108.6,8.1,108.7,8.1,108.6,8.2"/>
		<path class="st2" d="M111.9,8.1C111.9,8.1,111.9,8.1,111.9,8.1"/>
		<path class="st2" d="M107.7,8.5c-0.1,0-0.2,0.2-0.2,0.3"/>
		<path class="st2" d="M113.1,8.7c0-0.1-0.1-0.2-0.2-0.3"/>
		<polyline class="st2" points="112.3,8.3 112.3,8.4 112.3,8.4 112.4,8.4 112.4,8.4 112.4,8.4 112.4,8.4 112.5,8.4 112.5,8.4 
			112.5,8.4 112.6,8.5 112.6,8.5 112.6,8.5 112.7,8.5 112.7,8.5 112.7,8.6 112.8,8.6 112.8,8.6 112.8,8.6 		"/>
		<polyline class="st2" points="112.3,8.3 111.8,8.2 111.7,8.1 111.7,8.1 111.7,8.1 111.7,8 111.7,8 111.6,7.9 111.6,7.9 111.6,7.9 
			111.6,7.9 111.5,7.9 111.5,7.8 		"/>
		<polyline class="st2" points="111.3,8.4 111.3,8.4 111.3,8.4 111.2,8.4 111.2,8.4 111.2,8.4 111.1,8.4 111.1,8.4 111.1,8.4 
			111,8.4 111,8.4 111,8.3 		"/>
		<polyline class="st2" points="109.6,8.3 109.6,8.3 109.6,8.4 109.6,8.4 109.5,8.4 109.5,8.4 109.5,8.4 109.4,8.4 109.4,8.4 
			109.4,8.4 109.3,8.4 109.3,8.4 109.3,8.4 		"/>
		<polyline class="st2" points="108.5,8.3 108.5,8.3 108.5,8.3 108.5,8.3 108.4,8.3 108.4,8.3 108.4,8.3 108.3,8.3 108.3,8.3 
			108.3,8.4 108.2,8.4 108.2,8.4 108.2,8.4 108.1,8.4 108.1,8.4 		"/>
		<path class="st2" d="M108.9,7.8c-0.1,0.1-0.2,0.1-0.2,0.2"/>
		<path class="st2" d="M111.9,8.1c0-0.1-0.1-0.2-0.2-0.2"/>
		<path class="st2" d="M111.6,7.7c0,0.1,0,0.1,0.1,0.1"/>
		<path class="st2" d="M108.9,7.8c0,0,0.1-0.1,0.1-0.1"/>
		<line class="st2" x1="108.3" y1="8.9" x2="108.3" y2="8.9"/>
		<line class="st2" x1="112.3" y1="8.9" x2="112.3" y2="8.9"/>
		<line class="st2" x1="113" y1="29.5" x2="113" y2="29.5"/>
		<line class="st2" x1="112" y1="30" x2="112.4" y2="30"/>
		<line class="st2" x1="111.9" y1="29.5" x2="112" y2="29.5"/>
		<polyline class="st2" points="110.6,30 110.6,29.5 110.7,29.5 		"/>
		<polyline class="st2" points="110.6,30 110.6,30 110.6,30 110.6,30 110.6,30 		"/>
		<line class="st2" x1="110" y1="30" x2="110.6" y2="30"/>
		<polyline class="st2" points="110,30 110,30 109.9,30 109.9,30 		"/>
		<line class="st2" x1="109.8" y1="29.5" x2="109.9" y2="29.5"/>
		<line class="st2" x1="109.9" y1="30" x2="109.9" y2="29.7"/>
		<line class="st2" x1="108.6" y1="29.5" x2="108.7" y2="29.5"/>
		<line class="st2" x1="108.2" y1="30" x2="108.6" y2="30"/>
		<line class="st2" x1="107.6" y1="29.5" x2="107.6" y2="29.5"/>
		<path class="st2" d="M113.1,30.1C113.1,30.1,113,30.1,113.1,30.1"/>
		<polyline class="st2" points="113,30 113,30 113,30.1 113,30.1 		"/>
		<line class="st2" x1="113" y1="30" x2="113" y2="29.5"/>
		<polyline class="st2" points="112,30 112,30 112,30 112,30 		"/>
		<line class="st2" x1="112" y1="30" x2="112" y2="29.5"/>
		<line class="st2" x1="108.6" y1="29.5" x2="108.6" y2="30"/>
		<polyline class="st2" points="108.6,30 108.6,30 108.6,30 108.6,30 		"/>
		<line class="st2" x1="107.6" y1="29.5" x2="107.6" y2="30"/>
		<polyline class="st2" points="107.6,30.1 107.6,30.1 107.6,30.1 107.6,30 107.6,30 		"/>
		<path class="st2" d="M107.6,30.1C107.5,30.1,107.5,30.1,107.6,30.1"/>
		<line class="st2" x1="107.6" y1="30" x2="107.6" y2="30"/>
		<line class="st2" x1="107.6" y1="30" x2="107.6" y2="30"/>
		<line class="st2" x1="113" y1="29.5" x2="113" y2="29.5"/>
		<line class="st2" x1="110.7" y1="29.5" x2="111.9" y2="29.5"/>
		<line class="st2" x1="108.7" y1="29.5" x2="109.8" y2="29.5"/>
		<line class="st2" x1="107.6" y1="29.5" x2="107.6" y2="29.5"/>
		<line class="st2" x1="112" y1="30.7" x2="112.9" y2="30.4"/>
		<line class="st2" x1="108.6" y1="30.7" x2="107.7" y2="30.4"/>
		<line class="st2" x1="107.5" y1="30.1" x2="107.5" y2="30.1"/>
		<line class="st2" x1="113.1" y1="30.1" x2="113.1" y2="30.1"/>
		<line class="st2" x1="109" y1="31.2" x2="109" y2="31.2"/>
		<line class="st2" x1="111.6" y1="31.2" x2="111.6" y2="31.2"/>
		<line class="st2" x1="110.6" y1="29.5" x2="110.6" y2="29.5"/>
		<line class="st2" x1="109.1" y1="31.3" x2="111.5" y2="31.3"/>
		<path class="st2" d="M111.5,31.3C111.6,31.3,111.6,31.3,111.5,31.3"/>
		<path class="st2" d="M109,31.2C109,31.3,109,31.3,109,31.2"/>
		<path class="st2" d="M112.9,30.4c0.1,0,0.2-0.2,0.2-0.3"/>
		<path class="st2" d="M107.5,30.2c0,0.1,0.1,0.2,0.2,0.3"/>
		<polyline class="st2" points="112.8,30.2 112.8,30.3 112.8,30.3 112.7,30.3 112.7,30.3 112.7,30.4 112.6,30.4 112.6,30.4 
			112.6,30.4 112.5,30.4 112.5,30.4 112.5,30.5 		"/>
		<polyline class="st2" points="108.1,30.5 108.1,30.5 108.2,30.5 108.2,30.5 108.2,30.5 108.3,30.5 108.3,30.6 108.3,30.6 
			108.4,30.6 108.4,30.6 108.4,30.6 108.5,30.6 108.5,30.6 108.5,30.6 		"/>
		<polyline class="st2" points="109.3,30.5 109.3,30.5 109.3,30.5 109.4,30.5 109.4,30.5 109.4,30.5 109.5,30.5 109.5,30.5 
			109.5,30.5 109.6,30.5 109.6,30.5 109.6,30.6 		"/>
		<polyline class="st2" points="111,30.6 111,30.6 111,30.5 111,30.5 111.1,30.5 111.1,30.5 111.1,30.5 111.2,30.5 111.2,30.5 
			111.2,30.5 111.3,30.5 111.3,30.5 		"/>
		<path class="st2" d="M111.7,31.1c0.1-0.1,0.2-0.1,0.2-0.2"/>
		<path class="st2" d="M108.7,30.8c0,0.1,0.1,0.2,0.2,0.2"/>
		<path class="st2" d="M109,31.2c0-0.1,0-0.1-0.1-0.1"/>
		<path class="st2" d="M111.7,31.1c0,0-0.1,0.1-0.1,0.1"/>
		<path class="st2" d="M112,30.7C111.9,30.7,111.9,30.8,112,30.7"/>
		<path class="st2" d="M108.7,30.8C108.7,30.8,108.6,30.7,108.7,30.8"/>
		<polyline class="st2" points="111.5,31.1 111.5,31.1 111.5,31 111.6,31 111.6,31 111.6,31 111.6,31 111.7,30.9 111.7,30.9 
			111.7,30.8 111.7,30.8 111.7,30.8 111.8,30.7 112.3,30.6 112.3,30.5 112.3,30.5 112.4,30.5 112.4,30.5 112.4,30.5 112.5,30.5 		
			"/>
		<line class="st2" x1="112.3" y1="30" x2="112.3" y2="30"/>
		<line class="st2" x1="108.3" y1="30" x2="108.3" y2="30"/>
		<line class="st2" x1="110.6" y1="10.1" x2="110.7" y2="10.1"/>
		<line class="st2" x1="108.7" y1="10.1" x2="108.9" y2="10.1"/>
		<line class="st2" x1="109.9" y1="10.1" x2="109.9" y2="10.1"/>
		<line class="st2" x1="111.7" y1="10.1" x2="111.8" y2="10.1"/>
		<line class="st2" x1="107.6" y1="9.4" x2="107.6" y2="9.4"/>
		<line class="st2" x1="108.6" y1="9.4" x2="108.7" y2="9.4"/>
		<polyline class="st2" points="110.6,9.8 110.6,9.4 110.7,9.4 		"/>
		<path class="st2" d="M110.6,10C110.6,10.1,110.7,10.1,110.6,10"/>
		<line class="st2" x1="110.6" y1="10" x2="110.6" y2="9.8"/>
		<path class="st2" d="M109.9,10.1C109.9,10.1,109.9,10.1,109.9,10.1"/>
		<line class="st2" x1="109.8" y1="9.4" x2="109.9" y2="9.4"/>
		<line class="st2" x1="111.9" y1="9.4" x2="112" y2="9.4"/>
		<line class="st2" x1="113" y1="9.4" x2="113" y2="9.4"/>
		<line class="st2" x1="107.6" y1="9.4" x2="107.6" y2="9.4"/>
		<line class="st2" x1="108.9" y1="10.1" x2="108.9" y2="10.1"/>
		<line class="st2" x1="108.6" y1="9.4" x2="108.6" y2="9.8"/>
		<polyline class="st2" points="108.6,9.8 108.6,9.9 108.7,9.9 108.7,10 108.7,10 108.7,10 108.8,10.1 108.8,10.1 108.9,10.1 		"/>
		<polyline class="st2" points="111.7,10.1 111.7,10.1 111.8,10.1 111.8,10 111.9,10 111.9,10 111.9,9.9 112,9.9 112,9.8 		"/>
		<line class="st2" x1="112" y1="9.8" x2="112" y2="9.4"/>
		<line class="st2" x1="113" y1="9.4" x2="113" y2="9.4"/>
		<line class="st2" x1="111.7" y1="10.1" x2="111.7" y2="10.1"/>
		<line class="st2" x1="110.7" y1="10.1" x2="111.7" y2="10.1"/>
		<line class="st2" x1="108.9" y1="10.1" x2="109.9" y2="10.1"/>
		<line class="st2" x1="107.6" y1="9.4" x2="107.6" y2="9.4"/>
		<line class="st2" x1="108.7" y1="9.4" x2="109.8" y2="9.4"/>
		<line class="st2" x1="110.7" y1="9.4" x2="111.9" y2="9.4"/>
		<line class="st2" x1="113" y1="9.4" x2="113" y2="9.4"/>
		<line class="st2" x1="110.6" y1="10.3" x2="111.5" y2="10.3"/>
		<line class="st2" x1="109.1" y1="10.3" x2="109.9" y2="10.3"/>
		<path class="st2" d="M108.9,10.2C108.9,10.3,109,10.3,108.9,10.2"/>
		<path class="st2" d="M111.6,10.3C111.6,10.3,111.6,10.3,111.6,10.3"/>
		<line class="st2" x1="110.6" y1="9.4" x2="110.6" y2="9.4"/>
		<path class="st2" d="M111.7,10.1C111.6,10.1,111.6,10.1,111.7,10.1"/>
		<path class="st2" d="M109,10.2C109,10.1,109,10.1,109,10.2"/>
		<line class="st2" x1="111.5" y1="10.1" x2="111.5" y2="10.1"/>
		<line class="st2" x1="111.6" y1="10.2" x2="111.6" y2="10.2"/>
		<line class="st2" x1="108.9" y1="10.2" x2="108.9" y2="10.2"/>
		<line class="st2" x1="108.9" y1="28.8" x2="108.7" y2="28.8"/>
		<line class="st2" x1="110.6" y1="28.8" x2="110.7" y2="28.8"/>
		<line class="st2" x1="109.9" y1="28.8" x2="109.9" y2="28.8"/>
		<line class="st2" x1="111.8" y1="28.8" x2="111.7" y2="28.8"/>
		<line class="st2" x1="107.6" y1="29.5" x2="107.6" y2="29.5"/>
		<line class="st2" x1="113" y1="29.5" x2="113" y2="29.5"/>
		<line class="st2" x1="111.9" y1="29.5" x2="112" y2="29.5"/>
		<line class="st2" x1="109.8" y1="29.5" x2="109.9" y2="29.5"/>
		<path class="st2" d="M109.9,28.9C109.9,28.8,109.9,28.8,109.9,28.9"/>
		<path class="st2" d="M110.7,28.8C110.7,28.8,110.6,28.8,110.7,28.8"/>
		<line class="st2" x1="110.6" y1="29.1" x2="110.6" y2="28.9"/>
		<polyline class="st2" points="110.6,29.1 110.6,29.5 110.7,29.5 		"/>
		<line class="st2" x1="108.6" y1="29.5" x2="108.7" y2="29.5"/>
		<line class="st2" x1="107.6" y1="29.4" x2="107.6" y2="29.5"/>
		<line class="st2" x1="108.9" y1="28.8" x2="108.9" y2="28.8"/>
		<line class="st2" x1="113" y1="29.5" x2="113" y2="29.4"/>
		<line class="st2" x1="111.7" y1="28.8" x2="111.7" y2="28.8"/>
		<line class="st2" x1="112" y1="29.5" x2="112" y2="29.1"/>
		<polyline class="st2" points="112,29.1 112,29 111.9,29 111.9,28.9 111.9,28.9 111.8,28.9 111.8,28.8 111.7,28.8 111.7,28.8 		"/>
		<polyline class="st2" points="108.9,28.8 108.8,28.8 108.8,28.8 108.7,28.9 108.7,28.9 108.7,28.9 108.7,29 108.6,29 108.6,29.1 
					"/>
		<line class="st2" x1="108.6" y1="29.1" x2="108.6" y2="29.5"/>
		<line class="st2" x1="110.7" y1="28.8" x2="111.7" y2="28.8"/>
		<line class="st2" x1="108.9" y1="28.8" x2="109.9" y2="28.8"/>
		<line class="st2" x1="107.6" y1="29.5" x2="107.6" y2="29.5"/>
		<line class="st2" x1="113" y1="29.5" x2="113" y2="29.5"/>
		<line class="st2" x1="110.7" y1="29.5" x2="111.9" y2="29.5"/>
		<line class="st2" x1="108.7" y1="29.5" x2="109.8" y2="29.5"/>
		<line class="st2" x1="110.6" y1="28.6" x2="111.5" y2="28.6"/>
		<line class="st2" x1="109.1" y1="28.6" x2="109.9" y2="28.6"/>
		<path class="st2" d="M111.6,28.7C111.6,28.6,111.6,28.6,111.6,28.7"/>
		<path class="st2" d="M109,28.6C109,28.6,108.9,28.6,109,28.6"/>
		<line class="st2" x1="110.6" y1="29.5" x2="110.6" y2="29.5"/>
		<path class="st2" d="M108.9,28.8C109,28.8,109,28.7,108.9,28.8"/>
		<path class="st2" d="M111.6,28.7C111.6,28.7,111.6,28.8,111.6,28.7"/>
		<line class="st2" x1="111.5" y1="28.8" x2="111.5" y2="28.8"/>
		<line class="st2" x1="108.9" y1="28.7" x2="108.9" y2="28.7"/>
		<line class="st2" x1="111.6" y1="28.7" x2="111.6" y2="28.7"/>
		<line class="st2" x1="64" y1="29.5" x2="64.1" y2="29.5"/>
		<line class="st2" x1="64" y1="29.5" x2="64" y2="29.5"/>
		<line class="st2" x1="64.1" y1="29.5" x2="81.8" y2="21.8"/>
		<line class="st2" x1="83.1" y1="21.3" x2="85.8" y2="20.1"/>
		<line class="st2" x1="89" y1="18.7" x2="108.7" y2="10.1"/>
		<polyline class="st2" points="44.6,29.5 44.6,29.5 76.2,19.8 		"/>
		<line class="st2" x1="79.7" y1="18.8" x2="101.8" y2="12"/>
		<polyline class="st2" points="107.6,9.2 44.3,28.7 44.4,28.7 44.6,29.5 		"/>
		<polyline class="st2" points="86.7,19.2 86.7,19.3 86.7,19.3 		"/>
		<polyline class="st2" points="88.6,18.4 88.6,18.4 88.6,18.5 		"/>
		<line class="st2" x1="64" y1="29.5" x2="64" y2="29.5"/>
		<line class="st2" x1="63.8" y1="28.7" x2="63.8" y2="28.7"/>
		<line class="st2" x1="64" y1="29.5" x2="64" y2="29.5"/>
		<polyline class="st2" points="64.1,29.5 64.1,29.5 64.1,29.5 64,29.5 		"/>
		<line class="st2" x1="63.9" y1="28.7" x2="64.1" y2="29.5"/>
		<polyline class="st2" points="63.8,28.7 63.9,28.7 63.9,28.7 63.9,28.7 63.9,28.7 		"/>
		<line class="st2" x1="63.5" y1="28.7" x2="63.8" y2="28.7"/>
		<polyline class="st2" points="63.4,28.7 63.4,28.7 63.5,28.7 		"/>
		<line class="st2" x1="64" y1="29.5" x2="64" y2="29.5"/>
		<line class="st2" x1="64.1" y1="29.5" x2="86.4" y2="19.8"/>
		<line class="st2" x1="89" y1="18.7" x2="108.8" y2="10.1"/>
		<line class="st2" x1="63.4" y1="28.7" x2="108.6" y2="9"/>
		<line class="st2" x1="110.1" y1="28.9" x2="110.1" y2="28.9"/>
		<line class="st2" x1="110.5" y1="28.9" x2="110.5" y2="28.9"/>
		<line class="st2" x1="110.6" y1="28.7" x2="110.6" y2="18.9"/>
		<line class="st2" x1="110.6" y1="18" x2="110.6" y2="9"/>
		<polyline class="st2" points="110.6,28.7 110.6,28.7 110.6,28.7 110.6,28.7 110.6,28.7 		"/>
		<polyline class="st2" points="110.6,9 110.6,9 110.6,9 110.6,9 110.6,9 		"/>
		<line class="st2" x1="110" y1="28.7" x2="110.6" y2="28.7"/>
		<line class="st2" x1="110" y1="9" x2="110.6" y2="9"/>
		<polyline class="st2" points="109.9,28.7 109.9,28.7 110,28.7 110,28.7 		"/>
		<polyline class="st2" points="109.9,9 109.9,9 110,9 110,9 		"/>
		<polyline class="st2" points="109.9,29.5 109.9,28.7 109.9,9.2 		"/>
		<polyline class="st2" points="109.9,29.5 109.9,29.5 109.9,29.5 		"/>
		<line class="st2" x1="133.9" y1="19.3" x2="133.9" y2="19.3"/>
		<polyline class="st2" points="132,18.4 132,18.4 132,18.4 		"/>
		<line class="st2" x1="156.8" y1="28.7" x2="156.8" y2="28.7"/>
		<line class="st2" x1="156.6" y1="29.5" x2="156.6" y2="29.5"/>
		<line class="st2" x1="156.6" y1="29.5" x2="156.6" y2="29.5"/>
		<line class="st2" x1="157.1" y1="28.7" x2="157.1" y2="28.7"/>
		<line class="st2" x1="156.7" y1="28.7" x2="157.1" y2="28.7"/>
		<polyline class="st2" points="156.7,28.7 156.7,28.7 156.7,28.7 156.7,28.7 		"/>
		<line class="st2" x1="156.5" y1="29.5" x2="156.7" y2="28.7"/>
		<polyline class="st2" points="156.6,29.5 156.5,29.5 156.5,29.5 156.5,29.5 		"/>
		<line class="st2" x1="156.6" y1="29.5" x2="156.6" y2="29.5"/>
		<line class="st2" x1="157.1" y1="28.7" x2="112" y2="9"/>
		<line class="st2" x1="156.5" y1="29.5" x2="134.2" y2="19.8"/>
		<line class="st2" x1="131.5" y1="18.7" x2="111.8" y2="10.1"/>
		<polyline class="st2" points="144.4,19.8 176,29.5 176,29.5 176.2,28.7 176.2,28.7 113,9.2 		"/>
		<line class="st2" x1="140.9" y1="18.8" x2="118.8" y2="11.9"/>
		<line class="st2" x1="157.1" y1="28.7" x2="157.1" y2="28.7"/>
		<line class="st2" x1="157.1" y1="28.7" x2="140.4" y2="21.4"/>
		<line class="st2" x1="139" y1="20.8" x2="118.8" y2="12"/>
		<line class="st2" x1="108.7" y1="28.8" x2="88.6" y2="20.1"/>
		<path class="st2" d="M78.3,20.2c0,0-0.1,0-0.1,0.1c0,0,0,0.1,0.1,0.1c0,0,0.1,0,0.1-0.1S78.3,20.2,78.3,20.2"/>
		<line class="st2" x1="101.7" y1="26.9" x2="83.1" y2="21.3"/>
		<line class="st2" x1="81.5" y1="20.8" x2="79.1" y2="20"/>
		<line class="st2" x1="107.6" y1="29.7" x2="81.8" y2="21.8"/>
		<line class="st2" x1="80.2" y1="21.4" x2="78.2" y2="20.7"/>
		<polyline class="st2" points="87.9,20.2 87.9,20.3 87.9,20.3 		"/>
		<line class="st2" x1="87.2" y1="20.6" x2="87.1" y2="20.6"/>
		<polyline class="st2" points="87.1,20.6 87.1,20.5 87.1,20.5 87.1,20.5 		"/>
		<line class="st2" x1="87.1" y1="20.6" x2="87.3" y2="20.6"/>
		<polyline class="st2" points="87,20.5 87,20.6 87,20.6 87.1,20.6 		"/>
		<line class="st2" x1="87" y1="20.5" x2="87" y2="20.5"/>
		<line class="st2" x1="108.8" y1="28.8" x2="88.6" y2="20.1"/>
		<line class="st2" x1="108.6" y1="29.9" x2="87.1" y2="20.6"/>
		<line class="st2" x1="110.6" y1="29.9" x2="110.6" y2="29.5"/>
		<polyline class="st2" points="110.6,29.9 110.6,29.9 110.6,29.9 110.6,29.9 110.6,29.9 		"/>
		<line class="st2" x1="110" y1="29.9" x2="110.6" y2="29.9"/>
		<polyline class="st2" points="109.9,29.9 109.9,29.9 110,29.9 110,29.9 		"/>
		<line class="st2" x1="109.9" y1="29.7" x2="109.9" y2="29.5"/>
		<polyline class="st2" points="133.5,20.5 133.5,20.5 133.5,20.5 133.5,20.6 		"/>
		<line class="st2" x1="133.5" y1="20.6" x2="133.4" y2="20.6"/>
		<line class="st2" x1="133.5" y1="20.5" x2="133.5" y2="20.5"/>
		<polyline class="st2" points="133.5,20.6 133.5,20.6 133.5,20.6 133.5,20.5 		"/>
		<polyline class="st2" points="133.3,20.6 133.5,20.6 112,29.9 		"/>
		<line class="st2" x1="111.8" y1="28.8" x2="132" y2="20.1"/>
		<path class="st2" d="M142.3,20.2c0,0-0.1,0.1-0.1,0.1c0,0,0.1,0.1,0.1,0.1c0,0,0.1-0.1,0.1-0.1C142.4,20.2,142.4,20.1,142.3,20.2"
			/>
		<line class="st2" x1="113" y1="29.7" x2="138.8" y2="21.8"/>
		<line class="st2" x1="140.4" y1="21.4" x2="142.4" y2="20.7"/>
		<line class="st2" x1="118.8" y1="27" x2="137.5" y2="21.3"/>
		<line class="st2" x1="139" y1="20.8" x2="141.5" y2="20"/>
		<line class="st2" x1="118.9" y1="26.9" x2="133.2" y2="20.7"/>
		<line class="st2" x1="87.4" y1="20.7" x2="87.4" y2="20.7"/>
		<polyline class="st2" points="87.2,20.8 87.3,20.8 87.4,20.7 		"/>
		<line class="st2" x1="89.1" y1="19.3" x2="88.6" y2="20.1"/>
		<polyline class="st2" points="89.1,19.3 89.1,19.3 89.1,19.3 89.1,19.2 89.1,19.1 89.1,19.1 89.1,19 89.1,18.9 		"/>
		<line class="st2" x1="89.1" y1="18.9" x2="89" y2="18.7"/>
		<line class="st2" x1="87.2" y1="20.8" x2="87.2" y2="20.8"/>
		<polyline class="st2" points="76.3,20.1 76.3,20.1 76.3,20.2 76.4,20.2 76.4,20.3 76.5,20.3 76.5,20.3 		"/>
		<polyline class="st2" points="79.8,19 79.7,18.9 79.5,18.2 		"/>
		<polyline class="st2" points="79.7,19.4 79.7,19.3 79.8,19.3 79.8,19.2 79.8,19.1 79.8,19.1 79.8,19 		"/>
		<polyline class="st2" points="79.5,18.2 79.5,18.1 79.4,18.1 79.4,18.1 79.3,18 79.3,18 79.2,18 79.2,18 79.1,18 		"/>
		<line class="st2" x1="79.1" y1="18" x2="76.2" y2="18.9"/>
		<polyline class="st2" points="76.2,18.9 76.2,18.9 76.1,18.9 76.1,19 76.1,19 76.1,19.1 76,19.1 76,19.2 76.1,19.3 		"/>
		<polyline class="st2" points="76.1,19.3 76.3,20 76.3,20.1 		"/>
		<line class="st2" x1="76.5" y1="20.3" x2="77.9" y2="20.7"/>
		<polyline class="st2" points="77.9,20.7 78,20.8 78.1,20.8 78.1,20.8 78.2,20.7 		"/>
		<line class="st2" x1="78.2" y1="20.7" x2="78.5" y2="20.7"/>
		<polyline class="st2" points="78.5,20.7 78.6,20.6 78.7,20.6 78.8,20.5 78.8,20.5 		"/>
		<line class="st2" x1="78.8" y1="20.5" x2="79.7" y2="19.4"/>
		<path class="st2" d="M78.1,20.3c0,0.1,0.1,0.1,0.2,0.1c0.1,0,0.1-0.1,0.1-0.2c0-0.1-0.1-0.1-0.2-0.1
			C78.1,20.1,78.1,20.2,78.1,20.3"/>
		<polyline class="st2" points="78.3,20.4 78.2,20.5 78.2,20.5 78.1,20.4 78.1,20.4 78.1,20.4 78,20.3 78,20.3 78.1,20.2 78.1,20.2 
			78.1,20.1 78.2,20.1 78.2,20 78.3,20 78.3,20.1 78.4,20.1 78.4,20.1 78.4,20.2 78.4,20.2 78.4,20.3 78.4,20.3 78.4,20.4 
			78.3,20.4 78.3,20.4 		"/>
		<polyline class="st2" points="79.2,18.6 79.2,18.6 79.1,18.6 79.1,18.6 79,18.5 79,18.5 79,18.5 79,18.4 79,18.4 79,18.3 
			79.1,18.3 79.1,18.3 79.2,18.3 79.2,18.3 79.3,18.3 79.3,18.3 79.3,18.4 79.3,18.4 79.3,18.5 79.3,18.5 79.3,18.5 79.3,18.6 
			79.2,18.6 		"/>
		<polyline class="st2" points="76.5,19.4 76.4,19.4 76.4,19.4 76.3,19.4 76.3,19.4 76.3,19.3 76.3,19.3 76.3,19.3 76.3,19.2 
			76.3,19.1 76.3,19.1 76.4,19.1 76.4,19.1 76.5,19.1 76.5,19.1 76.6,19.1 76.6,19.2 76.6,19.2 76.6,19.3 76.6,19.3 76.6,19.4 
			76.5,19.4 76.5,19.4 		"/>
		<path class="st2" d="M76.4,19.3c0,0,0.1,0.1,0.1,0.1c0,0,0.1-0.1,0.1-0.1c0,0-0.1-0.1-0.1-0.1C76.4,19.2,76.4,19.3,76.4,19.3"/>
		<path class="st2" d="M79.1,18.4c0,0,0.1,0.1,0.1,0.1c0,0,0.1-0.1,0.1-0.1c0,0-0.1-0.1-0.1-0.1C79.1,18.3,79.1,18.4,79.1,18.4"/>
		<line class="st2" x1="86.4" y1="19.7" x2="86.3" y2="19.3"/>
		<line class="st2" x1="86.5" y1="18.9" x2="88.5" y2="18"/>
		<polyline class="st2" points="86.5,18.9 86.4,18.9 86.4,18.9 86.4,19 86.3,19 86.3,19.1 86.3,19.1 86.3,19.2 86.3,19.3 		"/>
		<polyline class="st2" points="88.6,18 88.5,18 88.5,18 		"/>
		<line class="st2" x1="88.6" y1="18" x2="88.6" y2="18"/>
		<polyline class="st2" points="86.7,19.3 86.7,19.3 86.7,19.2 		"/>
		<polyline class="st2" points="88.6,18.5 88.6,18.4 88.6,18.4 		"/>
		<polyline class="st2" points="87.9,20.3 87.9,20.3 87.9,20.3 87.9,20.2 		"/>
		<polyline class="st2" points="88,20.2 88,20.2 88,20.2 88,20.2 88.1,20.3 88.1,20.3 88,20.3 88,20.4 88,20.4 88,20.4 87.9,20.4 		
			"/>
		<line class="st2" x1="86.7" y1="20.3" x2="86.7" y2="20.3"/>
		<line class="st2" x1="86.1" y1="20.3" x2="86.1" y2="20.3"/>
		<line class="st2" x1="86.7" y1="20.3" x2="86.7" y2="20.3"/>
		<line class="st2" x1="86.7" y1="20.3" x2="86.1" y2="20.3"/>
		<polyline class="st2" points="86.7,20.3 86.6,20.3 86.6,20.3 86.6,20.2 86.5,20.2 86.5,20.1 86.5,20.2 86.6,20.2 86.6,20.3 
			86.6,20.3 86.7,20.3 		"/>
		<polyline class="st2" points="86.1,20.3 86.1,20.3 86.1,20.3 86,20.2 86,20.2 86,20.1 		"/>
		<polyline class="st2" points="88,20 88.1,20.1 88.1,20.1 88.1,20.2 88.1,20.2 88.1,20.3 88.1,20.3 88.1,20.4 88.1,20.4 88,20.4 
			88,20.5 		"/>
		<polyline class="st2" points="88.1,20.4 88,20.5 88,20.5 88,20.4 88,20.4 87.9,20.4 87.9,20.3 87.9,20.3 87.9,20.2 88,20.2 
			88,20.1 88,20.1 88,20 88.1,20 88.1,20.1 88.2,20.1 88.2,20.2 88.2,20.2 88.2,20.3 88.2,20.3 88.1,20.4 88.1,20.4 88.1,20.4 		"/>
		<polyline class="st2" points="88.8,18.6 88.7,18.6 88.7,18.6 88.6,18.6 88.6,18.5 88.6,18.5 88.6,18.5 88.6,18.4 88.6,18.4 
			88.6,18.3 88.6,18.3 88.6,18.3 88.7,18.3 88.7,18.3 88.8,18.3 88.8,18.3 88.8,18.4 88.8,18.4 88.8,18.5 88.8,18.5 88.8,18.5 
			88.8,18.6 88.8,18.6 		"/>
		<polyline class="st2" points="86.8,19.4 86.8,19.4 86.8,19.4 86.7,19.4 86.7,19.4 86.7,19.3 86.6,19.3 86.6,19.3 86.6,19.2 
			86.7,19.1 86.7,19.1 86.7,19.1 86.8,19.1 86.8,19.1 86.8,19.1 86.9,19.1 86.9,19.2 86.9,19.2 86.9,19.3 86.9,19.3 86.9,19.4 
			86.9,19.4 86.8,19.4 		"/>
		<polyline class="st2" points="86.8,19.4 86.8,19.4 86.8,19.4 86.8,19.4 86.8,19.3 86.9,19.3 86.8,19.2 86.8,19.1 86.8,19.1 
			86.8,19.1 86.7,19.1 		"/>
		<polyline class="st2" points="86.7,19.3 86.7,19.3 86.7,19.4 86.7,19.4 86.8,19.3 86.8,19.3 86.8,19.3 86.8,19.2 86.8,19.2 
			86.7,19.1 86.7,19.2 86.7,19.2 86.7,19.3 86.7,19.3 		"/>
		<polyline class="st2" points="88.7,18.6 88.7,18.6 88.8,18.5 88.8,18.5 88.8,18.4 88.8,18.4 88.8,18.3 88.7,18.3 88.7,18.3 
			88.7,18.3 		"/>
		<polyline class="st2" points="88.6,18.5 88.6,18.5 88.6,18.5 88.7,18.5 88.7,18.5 88.7,18.5 88.7,18.4 88.7,18.4 88.7,18.4 
			88.7,18.3 88.7,18.3 88.6,18.3 88.6,18.4 88.6,18.4 88.6,18.4 88.6,18.5 		"/>
		<polyline class="st2" points="87.6,20.7 87.7,20.8 87.8,20.8 		"/>
		<line class="st2" x1="87.6" y1="20.7" x2="86.7" y2="20.3"/>
		<line class="st2" x1="86.7" y1="20.3" x2="86.7" y2="20.3"/>
		<polyline class="st2" points="87.4,20.7 87.3,20.8 87.2,20.8 		"/>
		<line class="st2" x1="87.4" y1="20.7" x2="87.4" y2="20.7"/>
		<line class="st2" x1="87.2" y1="20.8" x2="87.1" y2="20.8"/>
		<line class="st2" x1="87.8" y1="20.8" x2="87.8" y2="20.8"/>
		<polyline class="st2" points="85.8,20.1 85.8,20.1 85.8,20.2 85.9,20.2 85.9,20.3 85.9,20.3 86,20.3 		"/>
		<line class="st2" x1="87" y1="20.7" x2="86" y2="20.3"/>
		<polyline class="st2" points="87,20.7 87,20.8 87.1,20.8 87.1,20.8 87.1,20.8 		"/>
		<line class="st2" x1="89.1" y1="19" x2="89.1" y2="18.9"/>
		<line class="st2" x1="88.9" y1="18.2" x2="89.1" y2="18.9"/>
		<polyline class="st2" points="88.6,18 88.7,18 88.7,18 88.7,18 88.8,18 88.8,18.1 88.8,18.1 88.9,18.2 88.9,18.2 		"/>
		<polyline class="st2" points="88,20.7 87.9,20.8 87.9,20.8 87.8,20.8 		"/>
		<line class="st2" x1="88" y1="20.7" x2="88.2" y2="20.7"/>
		<polyline class="st2" points="88.4,20.5 88.4,20.5 88.3,20.6 88.3,20.6 88.2,20.7 		"/>
		<line class="st2" x1="88.4" y1="20.5" x2="89.1" y2="19.3"/>
		<polyline class="st2" points="89.1,19 89.1,19.1 89.1,19.1 89.1,19.2 89.1,19.3 89.1,19.3 89.1,19.3 		"/>
		<line class="st2" x1="109.9" y1="19.5" x2="109.9" y2="19.5"/>
		<line class="st2" x1="109.9" y1="19.7" x2="109.9" y2="19.7"/>
		<line class="st2" x1="109.9" y1="18.7" x2="109.9" y2="18.7"/>
		<line class="st2" x1="110.6" y1="18.9" x2="110.6" y2="18"/>
		<line class="st2" x1="109.9" y1="19.7" x2="109.9" y2="19.8"/>
		<line class="st2" x1="109.9" y1="19.3" x2="109.9" y2="19.7"/>
		<line class="st2" x1="109.9" y1="18.9" x2="109.9" y2="18"/>
		<line class="st2" x1="110.6" y1="18.9" x2="110.6" y2="18.9"/>
		<line class="st2" x1="110.6" y1="18" x2="110.6" y2="18"/>
		<line class="st2" x1="109.9" y1="18" x2="109.9" y2="18"/>
		<line class="st2" x1="109.9" y1="19.3" x2="109.9" y2="18.9"/>
		<line class="st2" x1="109.8" y1="18" x2="109.9" y2="18"/>
		<line class="st2" x1="110.6" y1="18" x2="110.7" y2="18"/>
		<line class="st2" x1="110.7" y1="20.3" x2="110.7" y2="20.3"/>
		<line class="st2" x1="109.9" y1="20.3" x2="109.9" y2="20.3"/>
		<line class="st2" x1="109.9" y1="20.3" x2="109.9" y2="20.3"/>
		<line class="st2" x1="110.7" y1="20.3" x2="110.7" y2="20.3"/>
		<line class="st2" x1="110.7" y1="20.3" x2="110.6" y2="20.3"/>
		<line class="st2" x1="109.9" y1="20.3" x2="109.9" y2="20.3"/>
		<polyline class="st2" points="110.7,20.3 110.7,20.2 110.7,20.1 		"/>
		<polyline class="st2" points="109.9,20.3 109.9,20.2 109.9,20.1 		"/>
		<polyline class="st2" points="109.9,20.7 109.9,20.7 109.9,20.3 		"/>
		<path class="st2" d="M110.6,20.8C110.6,20.8,110.6,20.8,110.6,20.8"/>
		<path class="st2" d="M109.9,20.8C109.9,20.8,109.9,20.8,109.9,20.8"/>
		<polyline class="st2" points="109.7,19.4 109.7,19.4 109.7,19.4 109.7,19.3 109.7,19.3 109.7,19.2 109.7,19.2 109.7,19.1 
			109.7,19.1 109.7,19.1 109.7,19.1 109.7,19.1 109.7,19.2 109.7,19.3 109.7,19.3 109.7,19.3 109.7,19.4 109.7,19.4 		"/>
		<polyline class="st2" points="109.7,18.6 109.7,18.6 109.7,18.5 109.7,18.5 109.7,18.5 109.7,18.4 109.7,18.4 109.7,18.3 
			109.7,18.3 109.7,18.3 109.7,18.3 109.7,18.4 109.7,18.4 109.7,18.5 109.7,18.5 109.7,18.5 109.7,18.6 109.7,18.6 		"/>
		<polyline class="st2" points="110.9,18.6 110.9,18.6 110.9,18.6 110.9,18.5 110.9,18.5 110.9,18.5 110.9,18.4 110.9,18.4 
			110.9,18.3 110.8,18.3 110.8,18.3 110.9,18.3 110.9,18.3 110.9,18.4 110.9,18.4 110.9,18.5 110.9,18.5 110.9,18.5 110.9,18.6 
			110.9,18.6 		"/>
		<polyline class="st2" points="110.9,19.4 110.9,19.4 110.9,19.4 110.9,19.3 110.9,19.3 110.9,19.3 110.9,19.2 110.9,19.1 
			110.8,19.1 110.8,19.1 110.9,19.1 110.9,19.1 110.9,19.1 110.9,19.2 110.9,19.2 110.9,19.3 110.9,19.3 110.9,19.4 110.9,19.4 		
			"/>
		<line class="st2" x1="109.9" y1="20.8" x2="109.8" y2="20.8"/>
		<line class="st2" x1="110.8" y1="20.8" x2="110.7" y2="20.8"/>
		<polyline class="st2" points="109.7,18.2 109.7,18.2 109.7,18.1 109.7,18.1 109.7,18.1 109.7,18 109.8,18 109.8,18 109.8,18 		"/>
		<polyline class="st2" points="109.6,20 109.6,20.1 109.6,20.1 109.6,20.2 109.6,20.2 109.6,20.2 		"/>
		<line class="st2" x1="109.7" y1="20.7" x2="109.6" y2="20.2"/>
		<polyline class="st2" points="109.7,20.7 109.7,20.7 109.7,20.7 109.7,20.7 109.7,20.8 109.8,20.8 109.8,20.8 		"/>
		<polyline class="st2" points="109.6,19 109.6,19 109.6,18.9 		"/>
		<line class="st2" x1="109.6" y1="18.9" x2="109.7" y2="18.2"/>
		<line class="st2" x1="111" y1="19" x2="111" y2="18.9"/>
		<line class="st2" x1="110.9" y1="18.2" x2="111" y2="18.9"/>
		<polyline class="st2" points="110.7,18 110.7,18 110.8,18 110.8,18 110.8,18 110.8,18 110.8,18.1 110.8,18.1 110.8,18.1 
			110.8,18.2 110.9,18.2 110.9,18.2 		"/>
		<polyline class="st2" points="111,20.2 111,20.2 111,20.2 111,20.2 111,20.1 111,20.1 111,20 		"/>
		<line class="st2" x1="111" y1="20.2" x2="110.9" y2="20.7"/>
		<polyline class="st2" points="110.8,20.8 110.8,20.8 110.8,20.8 110.8,20.7 110.9,20.7 110.9,20.7 110.9,20.7 		"/>
		<line class="st2" x1="111" y1="19" x2="111" y2="19"/>
		<line class="st2" x1="109.6" y1="20" x2="109.6" y2="19"/>
		<line class="st2" x1="111" y1="20" x2="111" y2="19"/>
		<line class="st2" x1="134.2" y1="19.7" x2="134.2" y2="19.8"/>
		<line class="st2" x1="134.3" y1="19.3" x2="134.2" y2="19.7"/>
		<line class="st2" x1="134.1" y1="18.9" x2="132.1" y2="18"/>
		<line class="st2" x1="134.4" y1="20.3" x2="134.4" y2="20.3"/>
		<line class="st2" x1="133.9" y1="20.3" x2="133.9" y2="20.3"/>
		<polyline class="st2" points="134.4,20.3 134.4,20.3 134.4,20.3 		"/>
		<line class="st2" x1="134.4" y1="20.3" x2="133.9" y2="20.3"/>
		<polyline class="st2" points="134.6,20.1 134.6,20.2 134.5,20.2 134.5,20.3 134.5,20.3 134.4,20.3 		"/>
		<polyline class="st2" points="134,20.2 134,20.2 134,20.3 133.9,20.3 133.9,20.3 133.9,20.3 134,20.3 134,20.2 134,20.2 
			134.1,20.1 134,20.2 		"/>
		<polyline class="st2" points="132.6,20.2 132.6,20.3 132.6,20.3 132.6,20.3 		"/>
		<polyline class="st2" points="132.6,20.4 132.6,20.4 132.6,20.4 132.5,20.4 132.5,20.3 132.5,20.3 132.5,20.3 132.5,20.2 
			132.5,20.2 132.5,20.2 132.6,20.2 132.6,20.2 		"/>
		<polyline class="st2" points="132.5,20.5 132.5,20.4 132.5,20.4 132.5,20.4 132.4,20.3 132.4,20.3 132.4,20.2 132.5,20.2 
			132.5,20.1 132.5,20.1 132.5,20 		"/>
		<polyline class="st2" points="132.1,18 132.1,18 132,18 		"/>
		<polyline class="st2" points="134.3,19.3 134.3,19.2 134.3,19.1 134.3,19.1 134.2,19 134.2,19 134.2,18.9 134.2,18.9 134.1,18.9 
					"/>
		<line class="st2" x1="132" y1="18" x2="132" y2="18"/>
		<polyline class="st2" points="133.8,19.4 133.7,19.4 133.7,19.4 133.7,19.3 133.7,19.3 133.7,19.2 133.7,19.2 133.7,19.1 
			133.8,19.1 133.8,19.1 133.8,19.1 133.9,19.1 133.9,19.1 133.9,19.1 133.9,19.2 133.9,19.3 133.9,19.3 133.9,19.3 133.9,19.4 
			133.9,19.4 133.8,19.4 133.8,19.4 133.8,19.4 		"/>
		<polyline class="st2" points="131.8,18.6 131.8,18.6 131.7,18.5 131.7,18.5 131.7,18.5 131.7,18.4 131.7,18.4 131.8,18.3 
			131.8,18.3 131.9,18.3 131.9,18.3 131.9,18.3 132,18.3 132,18.3 132,18.4 132,18.4 132,18.5 132,18.5 132,18.5 131.9,18.6 
			131.9,18.6 131.9,18.6 131.8,18.6 		"/>
		<polyline class="st2" points="132.5,20.4 132.4,20.4 132.4,20.4 132.4,20.3 132.4,20.3 132.4,20.2 132.4,20.2 132.4,20.1 
			132.4,20.1 132.4,20.1 132.5,20 132.5,20 132.5,20.1 132.6,20.1 132.6,20.2 132.6,20.2 132.6,20.3 132.6,20.3 132.6,20.4 
			132.6,20.4 132.6,20.4 132.5,20.5 132.5,20.5 132.5,20.4 		"/>
		<polyline class="st2" points="131.9,18.6 131.9,18.6 131.8,18.6 131.8,18.5 131.8,18.5 131.8,18.4 131.8,18.4 131.8,18.3 
			131.9,18.3 131.9,18.3 131.9,18.3 		"/>
		<polyline class="st2" points="132,18.5 132,18.4 132,18.4 132,18.4 132,18.3 131.9,18.3 131.9,18.3 131.9,18.4 131.9,18.4 
			131.9,18.4 131.9,18.5 131.9,18.5 131.9,18.5 131.9,18.5 132,18.5 132,18.5 132,18.5 		"/>
		<polyline class="st2" points="133.8,19.4 133.8,19.4 133.8,19.4 133.8,19.4 133.7,19.3 133.7,19.3 133.7,19.2 133.8,19.1 
			133.8,19.1 133.8,19.1 133.8,19.1 		"/>
		<polyline class="st2" points="133.9,19.3 133.9,19.3 133.9,19.2 133.9,19.2 133.9,19.2 133.9,19.1 133.8,19.2 133.8,19.2 
			133.8,19.2 133.8,19.3 133.8,19.3 133.8,19.3 133.8,19.4 133.9,19.4 133.9,19.4 133.9,19.3 133.9,19.3 133.9,19.3 133.9,19.2 		
			"/>
		<polyline class="st2" points="132,18.4 132,18.4 132,18.5 		"/>
		<line class="st2" x1="133.9" y1="20.3" x2="133" y2="20.7"/>
		<line class="st2" x1="133.9" y1="20.3" x2="133.9" y2="20.3"/>
		<line class="st2" x1="133.2" y1="20.7" x2="133.2" y2="20.7"/>
		<polyline class="st2" points="133.4,20.8 133.3,20.8 133.2,20.7 		"/>
		<polyline class="st2" points="132.8,20.8 132.9,20.8 133,20.7 		"/>
		<line class="st2" x1="132.8" y1="20.8" x2="132.8" y2="20.8"/>
		<line class="st2" x1="133.4" y1="20.8" x2="133.4" y2="20.8"/>
		<polyline class="st2" points="131.7,18.2 131.7,18.2 131.7,18.1 131.7,18.1 131.8,18 131.8,18 131.9,18 131.9,18 132,18 		"/>
		<polyline class="st2" points="132.8,20.8 132.7,20.8 132.7,20.8 132.6,20.7 		"/>
		<line class="st2" x1="132.6" y1="20.7" x2="132.4" y2="20.7"/>
		<polyline class="st2" points="132.4,20.7 132.3,20.6 132.3,20.6 132.2,20.5 132.2,20.5 		"/>
		<line class="st2" x1="131.5" y1="19.3" x2="132.2" y2="20.5"/>
		<polyline class="st2" points="131.5,19.3 131.5,19.3 131.4,19.3 131.4,19.2 131.4,19.1 131.4,19.1 131.4,19 131.5,18.9 		"/>
		<line class="st2" x1="131.5" y1="18.9" x2="131.7" y2="18.2"/>
		<polyline class="st2" points="134.6,20.3 134.6,20.3 134.7,20.3 134.7,20.2 134.8,20.2 134.8,20.1 134.8,20.1 		"/>
		<line class="st2" x1="134.6" y1="20.3" x2="133.6" y2="20.7"/>
		<polyline class="st2" points="133.4,20.8 133.5,20.8 133.5,20.8 133.5,20.8 133.6,20.7 		"/>
		<polyline class="st2" points="144,20.3 144.1,20.3 144.2,20.3 144.2,20.2 144.3,20.2 144.3,20.1 144.3,20.1 		"/>
		<polyline class="st2" points="140.8,19 140.9,18.9 141.1,18.2 		"/>
		<polyline class="st2" points="140.8,19 140.8,19.1 140.8,19.1 140.8,19.2 140.8,19.3 140.9,19.3 140.9,19.4 		"/>
		<line class="st2" x1="140.9" y1="19.4" x2="141.8" y2="20.5"/>
		<polyline class="st2" points="141.8,20.5 141.8,20.5 141.9,20.6 142,20.6 142,20.7 		"/>
		<line class="st2" x1="142" y1="20.7" x2="142.4" y2="20.7"/>
		<polyline class="st2" points="142.4,20.7 142.5,20.8 142.5,20.8 142.6,20.8 142.7,20.7 		"/>
		<line class="st2" x1="142.7" y1="20.7" x2="144" y2="20.3"/>
		<polyline class="st2" points="141.5,18 141.4,18 141.4,18 141.3,18 141.3,18 141.2,18.1 141.1,18.1 141.1,18.1 141.1,18.2 		"/>
		<line class="st2" x1="144.4" y1="18.9" x2="141.5" y2="18"/>
		<polyline class="st2" points="144.5,19.3 144.6,19.2 144.6,19.1 144.5,19.1 144.5,19 144.5,19 144.5,18.9 144.4,18.9 144.4,18.9 
					"/>
		<polyline class="st2" points="144.3,20.1 144.3,20 144.5,19.3 		"/>
		<path class="st2" d="M142.5,20.3c0-0.1,0-0.1-0.1-0.2c-0.1,0-0.1,0-0.2,0.1c0,0.1,0,0.1,0.1,0.2C142.4,20.4,142.4,20.3,142.5,20.3
			"/>
		<polyline class="st2" points="144.1,19.4 144,19.4 144,19.4 144,19.3 144,19.3 144,19.2 144,19.2 144,19.1 144,19.1 144.1,19.1 
			144.2,19.1 144.2,19.1 144.3,19.1 144.3,19.1 144.3,19.2 144.3,19.3 144.3,19.3 144.3,19.3 144.3,19.4 144.3,19.4 144.2,19.4 
			144.2,19.4 144.1,19.4 		"/>
		<polyline class="st2" points="141.4,18.6 141.3,18.6 141.3,18.5 141.3,18.5 141.3,18.5 141.3,18.4 141.3,18.4 141.3,18.3 
			141.3,18.3 141.4,18.3 141.4,18.3 141.5,18.3 141.5,18.3 141.6,18.3 141.6,18.4 141.6,18.4 141.6,18.5 141.6,18.5 141.6,18.5 
			141.5,18.6 141.5,18.6 141.4,18.6 141.4,18.6 		"/>
		<polyline class="st2" points="142.3,20.4 142.3,20.4 142.2,20.4 142.2,20.3 142.1,20.3 142.1,20.2 142.1,20.2 142.2,20.1 
			142.2,20.1 142.3,20.1 142.3,20 142.4,20 142.4,20.1 142.5,20.1 142.5,20.2 142.5,20.2 142.6,20.3 142.6,20.3 142.5,20.4 
			142.5,20.4 142.5,20.4 142.4,20.5 142.4,20.5 142.3,20.4 		"/>
		<path class="st2" d="M141.5,18.4c0,0,0-0.1-0.1-0.1c0,0-0.1,0-0.1,0.1c0,0,0,0.1,0.1,0.1C141.4,18.5,141.5,18.5,141.5,18.4"/>
		<path class="st2" d="M144.2,19.3c0,0,0-0.1-0.1-0.1c0,0-0.1,0-0.1,0.1c0,0,0,0.1,0.1,0.1C144.2,19.4,144.2,19.3,144.2,19.3"/>
		<line class="st2" x1="133.4" y1="20.8" x2="133.4" y2="20.8"/>
		<polyline class="st2" points="134.8,20.1 134.8,20.1 134.8,20.2 134.7,20.2 134.7,20.3 134.7,20.3 134.6,20.3 		"/>
		<line class="st2" x1="133.6" y1="20.7" x2="134.6" y2="20.3"/>
		<polyline class="st2" points="133.6,20.7 133.5,20.8 133.5,20.8 133.5,20.8 133.4,20.8 		"/>
		<line class="st2" x1="63.4" y1="28.7" x2="63.4" y2="28.7"/>
		<line class="st2" x1="63.2" y1="28.9" x2="63.2" y2="28.9"/>
		<polyline class="st2" points="64,29.6 64,29.6 63.9,29.6 63.8,29.7 63.8,29.7 63.7,29.7 63.7,29.7 63.6,29.7 63.6,29.7 63.5,29.7 
			63.5,29.7 63.5,29.7 		"/>
		<line class="st2" x1="63.3" y1="29.7" x2="63.3" y2="29.7"/>
		<line class="st2" x1="64" y1="29.6" x2="64" y2="29.5"/>
		<polyline class="st2" points="43.8,28.8 44.3,28.7 44.3,28.7 44.4,28.7 44.6,29.5 		"/>
		<polyline class="st2" points="44.1,29.7 44.5,29.6 44.6,29.5 		"/>
		<polyline class="st2" points="43.8,28.9 43.8,28.9 43.8,28.8 43.8,28.8 		"/>
		<line class="st2" x1="43.8" y1="28.9" x2="44" y2="29.7"/>
		<polyline class="st2" points="44.1,29.7 44.1,29.7 44.1,29.7 44,29.7 44,29.7 		"/>
		<polyline class="st2" points="63.9,28.7 63.9,28.7 63.9,28.7 63.9,28.7 63.8,28.7 		"/>
		<line class="st2" x1="63.9" y1="28.7" x2="64.1" y2="29.5"/>
		<polyline class="st2" points="64.1,29.5 64.1,29.5 64.1,29.5 		"/>
		<line class="st2" x1="63.5" y1="28.7" x2="63.4" y2="28.7"/>
		<line class="st2" x1="63.8" y1="28.7" x2="63.5" y2="28.7"/>
		<line class="st2" x1="63.4" y1="28.7" x2="63.4" y2="28.7"/>
		<line class="st2" x1="63.2" y1="28.9" x2="63.2" y2="28.9"/>
		<line class="st2" x1="63.3" y1="29.6" x2="63.3" y2="29.6"/>
		<polyline class="st2" points="63.6,28.7 63.6,28.7 63.6,28.7 63.5,28.8 63.5,28.8 63.5,28.8 63.4,28.8 63.4,28.8 63.4,28.8 
			63.3,28.8 63.3,28.8 		"/>
		<line class="st2" x1="63.8" y1="29.6" x2="63.8" y2="29.6"/>
		<line class="st2" x1="63.4" y1="28.7" x2="63.4" y2="28.7"/>
		<polyline class="st2" points="63.2,28.9 63.2,28.9 63.2,28.8 63.2,28.8 63.2,28.8 63.3,28.8 63.3,28.7 63.4,28.7 63.4,28.7 		"/>
		<line class="st2" x1="63.2" y1="28.9" x2="63.3" y2="29.6"/>
		<line class="st2" x1="64.1" y1="29.5" x2="64" y2="29.6"/>
		<polyline class="st2" points="64,29.6 63.9,29.6 63.9,29.6 63.8,29.7 63.8,29.7 63.7,29.7 63.7,29.7 63.6,29.7 63.5,29.7 
			63.5,29.7 63.5,29.7 63.4,29.7 63.4,29.7 63.4,29.7 63.3,29.7 63.3,29.6 		"/>
		<polyline class="st2" points="110.6,28.7 110.6,28.7 110.6,28.7 110.6,28.7 		"/>
		<polyline class="st2" points="110,28.7 110,28.7 109.9,28.7 109.9,28.7 		"/>
		<line class="st2" x1="110.6" y1="28.7" x2="110" y2="28.7"/>
		<line class="st2" x1="109.9" y1="28.7" x2="109.9" y2="28.8"/>
		<line class="st2" x1="110.6" y1="28.8" x2="110.6" y2="28.7"/>
		<line class="st2" x1="109.9" y1="28.8" x2="109.9" y2="29.5"/>
		<line class="st2" x1="110.6" y1="29.5" x2="110.6" y2="28.8"/>
		<polyline class="st2" points="110.4,28.8 110.4,28.8 110.4,28.8 110.4,28.8 110.3,28.8 110.3,28.8 110.3,28.8 110.2,28.8 
			110.2,28.8 110.2,28.8 		"/>
		<polyline class="st2" points="110.6,29.5 110.6,29.5 110.6,29.6 110.6,29.6 110.5,29.7 110.5,29.7 110.5,29.7 110.4,29.7 
			110.4,29.7 110.4,29.7 110.3,29.7 110.3,29.7 110.3,29.7 110.2,29.7 110.2,29.7 110.2,29.7 110.1,29.7 110.1,29.7 110.1,29.7 
			110,29.6 110,29.6 109.9,29.5 109.9,29.5 		"/>
		<line class="st2" x1="157.1" y1="28.7" x2="157.1" y2="28.7"/>
		<polyline class="st2" points="156.5,29.5 156.5,29.5 156.5,29.5 		"/>
		<line class="st2" x1="156.7" y1="28.7" x2="156.5" y2="29.5"/>
		<polyline class="st2" points="156.7,28.7 156.7,28.7 156.7,28.7 156.7,28.7 156.7,28.7 		"/>
		<line class="st2" x1="157.1" y1="28.7" x2="156.7" y2="28.7"/>
		<line class="st2" x1="157.2" y1="28.7" x2="157.2" y2="28.7"/>
		<polyline class="st2" points="157.2,28.8 157.2,28.8 157.2,28.8 157.2,28.8 157.1,28.8 157.1,28.8 157.1,28.8 157,28.8 157,28.7 
			157,28.7 		"/>
		<line class="st2" x1="156.8" y1="29.6" x2="156.8" y2="29.6"/>
		<polyline class="st2" points="157.2,28.7 157.2,28.7 157.2,28.7 157.3,28.7 157.3,28.8 157.4,28.8 157.4,28.8 157.4,28.8 
			157.4,28.9 157.4,28.9 		"/>
		<line class="st2" x1="157.2" y1="28.7" x2="157.1" y2="28.7"/>
		<line class="st2" x1="157.4" y1="28.9" x2="157.2" y2="29.6"/>
		<polyline class="st2" points="157.2,29.6 157.2,29.7 157.2,29.7 157.2,29.7 157.1,29.7 157.1,29.7 157.1,29.7 157,29.7 157,29.7 
			156.9,29.7 156.9,29.7 156.8,29.7 156.8,29.7 156.7,29.6 156.7,29.6 156.6,29.6 		"/>
		<line class="st2" x1="156.6" y1="29.6" x2="156.5" y2="29.5"/>
		<polyline class="st2" points="176.8,28.8 176.3,28.7 176.2,28.7 		"/>
		<polyline class="st2" points="176,29.5 176,29.6 176.5,29.7 		"/>
		<polyline class="st2" points="176.8,28.8 176.8,28.8 176.8,28.9 176.8,28.9 		"/>
		<line class="st2" x1="176.8" y1="28.9" x2="176.6" y2="29.7"/>
		<polyline class="st2" points="176.6,29.7 176.6,29.7 176.5,29.7 176.5,29.7 176.5,29.7 		"/>
		<path class="st2" d="M76.8,20.5C76.8,20.5,76.8,20.5,76.8,20.5"/>
		<line class="st2" x1="76.8" y1="20.5" x2="77" y2="20.5"/>
		<line class="st2" x1="76.8" y1="20.4" x2="76.8" y2="20.5"/>
		<line class="st2" x1="86.8" y1="20.5" x2="86.5" y2="20.5"/>
		<path class="st2" d="M86.4,20.5C86.4,20.5,86.4,20.5,86.4,20.5"/>
		<line class="st2" x1="86.9" y1="20.4" x2="86.8" y2="20.5"/>
		<path class="st2" d="M86.8,20.5C86.8,20.5,86.8,20.5,86.8,20.5"/>
		<line class="st2" x1="86.4" y1="20.3" x2="86.4" y2="20.5"/>
		<line class="st2" x1="134.1" y1="20.5" x2="133.8" y2="20.5"/>
		<line class="st2" x1="133.8" y1="20.5" x2="133.6" y2="20.4"/>
		<path class="st2" d="M133.8,20.5C133.8,20.5,133.8,20.5,133.8,20.5"/>
		<path class="st2" d="M134.1,20.5C134.1,20.5,134.2,20.5,134.1,20.5"/>
		<line class="st2" x1="134.2" y1="20.3" x2="134.2" y2="20.5"/>
		<path class="st2" d="M143.7,20.5C143.8,20.5,143.8,20.5,143.7,20.5"/>
		<line class="st2" x1="143.6" y1="20.5" x2="143.7" y2="20.5"/>
		<line class="st2" x1="143.8" y1="20.4" x2="143.8" y2="20.5"/>
	</g>
	<g>
		<g>
			<path class="st3" d="M110.3,28.8c40.4-2.8,47-0.1,47-0.1c3.3-2.6,19.9,0,19.9,0S119.5,7.2,110.3,5.1c-9.2,2-66.9,23.5-66.9,23.5
				s16.8-2.7,20.1-0.1C63.5,28.6,69.9,25.9,110.3,28.8z"/>
			<path class="st3" d="M120.6,8.4c0,0-6.3-2.7-8.3-5.4c-0.5-0.7-1.9-1.1-2.7-1.1c-0.7,0-2.2,0.5-2.7,1.1c-2,2.7-7.6,5.6-7.6,5.6
				L120.6,8.4z"/>
			<path class="st3" d="M107,2.8c0,0,2.7,0.4,5.3,0"/>
		</g>
		<path class="st4" d="M63.5,28.6c0,0,38-13.4,45-25.5"/>
		<path class="st4" d="M111,3c0,0,12.1,15.2,46.3,25.7"/>
		<line class="st3" x1="110" y1="3.1" x2="110.3" y2="28.8"/>
	</g>
</g>
</svg>
