<?xml version="1.0" encoding="UTF-8"?> <!-- Generator: Adobe Illustrator 25.1.0, SVG Export Plug-In . SVG Version: 6.00 Build 0) --> <svg xmlns="http://www.w3.org/2000/svg" xmlns:xlink="http://www.w3.org/1999/xlink" version="1.1" id="图层_1" x="0px" y="0px" viewBox="0 0 1024 965" style="enable-background:new 0 0 1024 965;" xml:space="preserve"> <style type="text/css"> .st0{fill:#D0CFDC;} .st1{fill:#FFFFFF;} </style> <g> <path class="st0" d="M1013.77,320.48l0.08-0.01v-89.92c0,0-109.43-22.06-238.37-68.71C646.54,115.19,540.5,37.14,523.54,22.72 c-16.97-14.42-22.9-13.57-41.57,0c-18.66,13.57-88.22,66.17-212.92,118.76C144.35,194.08,9.47,217.83,9.47,217.83v84.73 c-0.39,1.05-3.06,8.38-2.97,11.01c0.07,1.82,1.19,2.56,3.16,1.58L9.53,579.41l-1.19,0.62v7.37l0.84,2.53l2.6,0.65v189.67L9,780.85 l0.04,1.23l12.7,3.44l18.24-3.72v-1.26l-1.32,0.01l1.36-0.26l-11.93-3.09l-8.98,1.4l-0.03,0.01V590.68l3.58-1.46v-9.4l-0.77-0.84 l-0.56,0.01V304.85l407.26,75.45l3.77,296.79l0.4,0.18l-0.58,0.02l-1.32,0.75v10.36l3.01,1.22l1.48,254.32l-14.04,3.51v1 l18.34,6.44l0.25,0.09l17.99-5.84l-0.03-1.07l-12.06-4.02l-0.1,0l-1.66-254.78l1.98-0.41l0.94-1.51v-9.89l-1.51-0.75l-0.41,0.02 l-3.36-295.86l-0.02,0l102.63-10.83l2.1,159.81l0.09,0.04l-0.2,0.01l-0.74,0.42v5.81l1.69,0.69l0,0l0.83,148.57l-7.88,1.97 l10.57,3.52l9.93-3.17l-6.76-2.25l-0.06,0l-0.93-148.83l1.11-0.23l0.53-0.85v-5.55l-0.85-0.42l-0.23,0.01l-1.85-160.33l449.94-47.5 V598.4l-1.22,0.64v7.53l0.86,2.58l2.65,0.66v191.91l-8.81-1.16l-12.02,3.31l21.64,2.71l8.72-3.61l-2.07-0.27V609.92l3.66-1.49 v-9.61l-0.79-0.86l-0.57,0.01V331.67c2.1,1.05,3.31,0.26,3.38-1.69C1017.1,327.32,1014.45,321.83,1013.77,320.48z"></path> <g> <path class="st1" d="M505.82,12.39c-0.45-0.06-0.89-0.08-1.34-0.11L505.82,12.39z"></path> <path class="st1" d="M440,281.01l573.84-49.65v-0.81c0,0-109.43-22.06-238.37-68.71C646.54,115.19,540.5,37.14,523.54,22.72 c-5.75-4.89-10.23-7.98-14.37-9.46C497.14,163.55,449.82,261.98,440,281.01z"></path> <path class="st1" d="M432.51,280.98c2.47-4.49,57.12-105.81,70.08-268.68c-5.7,0.4-11.7,3.94-20.62,10.42 c-18.66,13.57-88.22,66.17-212.92,118.76C144.35,194.08,9.47,217.83,9.47,217.83v0.79L432.51,280.98z"></path> <path class="st1" d="M1013.85,320.47v-82.43L438.64,287.8v93.75h-6.64v-93.93L9.47,225.34v77.22c-0.39,1.05-3.06,8.38-2.97,11.01 c0.07,1.82,1.19,2.56,3.16,1.58L9.52,579.41l-1.19,0.62v7.37l0.84,2.53l2.6,0.65v189.67L9,780.85l0.04,1.23l12.7,3.44l18.24-3.72 v-1.26l-1.32,0.01l1.36-0.26l-11.93-3.09l-8.98,1.4l-0.03,0.01V590.68l3.58-1.46v-9.4l-0.77-0.84l-0.56,0.01V304.85l407.26,75.45 l3.77,296.79l0.39,0.18l-0.58,0.02l-1.32,0.75v10.36l3.01,1.22l1.48,254.32l-14.04,3.51v1l18.34,6.44l0.25,0.09l17.99-5.84 l-0.03-1.07l-12.06-4.02l-0.1,0l-1.66-254.78l1.98-0.41l0.94-1.51v-9.89l-1.51-0.75l-0.41,0.02l-3.36-295.86l-0.02,0l102.63-10.83 l2.1,159.81l0.09,0.04l-0.2,0.01l-0.74,0.42v5.81l1.69,0.69l0,0l0.83,148.57l-7.88,1.97l10.57,3.52l9.93-3.17l-6.76-2.25l-0.06,0 l-0.93-148.83l1.11-0.23l0.53-0.85v-5.55l-0.85-0.42l-0.23,0.01l-1.85-160.33l449.94-47.5V598.4l-1.22,0.64v7.53l0.86,2.58 l2.65,0.66v191.91l-8.81-1.16l-12.02,3.31l21.64,2.71l8.72-3.61l-2.07-0.27V609.92l3.66-1.49v-9.61l-0.79-0.86l-0.57,0.01V331.67 c2.1,1.05,3.31,0.26,3.38-1.69c0.1-2.66-2.55-8.15-3.23-9.5L1013.85,320.47z"></path> </g> <g> <path class="st0" d="M435.66,392.73c-6.47,0-6.97-4.71-6.97-11.36v-1.14l12.77,0.38l0.05,1.03c0.01,0.27,0.26,6.76-2.52,9.65 C438.08,392.25,436.96,392.73,435.66,392.73z M430.91,382.52c0.1,6.92,1.25,8,4.74,8c0.69,0,1.25-0.24,1.74-0.75 c1.47-1.53,1.86-4.96,1.91-7L430.91,382.52z"></path> </g> </g> </svg> 