<svg width="1160" height="38" viewBox="0 0 1160 38" fill="none" xmlns="http://www.w3.org/2000/svg">
<g filter="url(#filter0_d)">
<rect x="4" width="1152" height="30" fill="#F5F5F7"/>
<path d="M349.746 14.8604H346.763V18H345.825V10.8906H350.229V11.6621H346.763V14.0938H349.746V14.8604ZM353.638 13.5273C353.501 13.5046 353.353 13.4932 353.193 13.4932C352.601 13.4932 352.199 13.7454 351.987 14.25V18H351.084V12.7168H351.963L351.978 13.3271C352.274 12.8551 352.694 12.6191 353.237 12.6191C353.413 12.6191 353.547 12.6419 353.638 12.6875V13.5273ZM356.567 18.0977C355.851 18.0977 355.269 17.8633 354.819 17.3945C354.37 16.9225 354.146 16.2926 354.146 15.5049V15.3389C354.146 14.8148 354.245 14.3477 354.443 13.9375C354.645 13.5241 354.925 13.2018 355.283 12.9707C355.645 12.7363 356.035 12.6191 356.455 12.6191C357.142 12.6191 357.676 12.8454 358.057 13.2979C358.438 13.7503 358.628 14.3981 358.628 15.2412V15.6172H355.049C355.062 16.138 355.213 16.5596 355.503 16.8818C355.796 17.2008 356.167 17.3604 356.616 17.3604C356.935 17.3604 357.205 17.2952 357.427 17.165C357.648 17.0348 357.842 16.8623 358.008 16.6475L358.56 17.0771C358.117 17.7575 357.453 18.0977 356.567 18.0977ZM356.455 13.3613C356.09 13.3613 355.785 13.4948 355.537 13.7617C355.29 14.0254 355.137 14.3965 355.078 14.875H357.725V14.8066C357.699 14.3477 357.575 13.9928 357.354 13.7422C357.132 13.4883 356.833 13.3613 356.455 13.3613ZM361.87 18.0977C361.154 18.0977 360.571 17.8633 360.122 17.3945C359.673 16.9225 359.448 16.2926 359.448 15.5049V15.3389C359.448 14.8148 359.548 14.3477 359.746 13.9375C359.948 13.5241 360.228 13.2018 360.586 12.9707C360.947 12.7363 361.338 12.6191 361.758 12.6191C362.445 12.6191 362.979 12.8454 363.359 13.2979C363.74 13.7503 363.931 14.3981 363.931 15.2412V15.6172H360.352C360.365 16.138 360.516 16.5596 360.806 16.8818C361.099 17.2008 361.47 17.3604 361.919 17.3604C362.238 17.3604 362.508 17.2952 362.729 17.165C362.951 17.0348 363.145 16.8623 363.311 16.6475L363.862 17.0771C363.42 17.7575 362.756 18.0977 361.87 18.0977ZM361.758 13.3613C361.393 13.3613 361.087 13.4948 360.84 13.7617C360.592 14.0254 360.439 14.3965 360.381 14.875H363.027V14.8066C363.001 14.3477 362.878 13.9928 362.656 13.7422C362.435 13.4883 362.135 13.3613 361.758 13.3613ZM372.607 10.8906V15.7246C372.604 16.3952 372.393 16.9437 371.973 17.3701C371.556 17.7965 370.99 18.0358 370.273 18.0879L370.024 18.0977C369.246 18.0977 368.626 17.8877 368.164 17.4678C367.702 17.0479 367.467 16.4701 367.461 15.7344V10.8906H368.389V15.7051C368.389 16.2194 368.53 16.6198 368.813 16.9062C369.097 17.1895 369.5 17.3311 370.024 17.3311C370.555 17.3311 370.96 17.1895 371.24 16.9062C371.523 16.623 371.665 16.2243 371.665 15.71V10.8906H372.607ZM376.182 14.8311C375.378 14.5999 374.792 14.3167 374.424 13.9814C374.059 13.6429 373.877 13.2262 373.877 12.7314C373.877 12.1715 374.1 11.7093 374.546 11.3447C374.995 10.9769 375.578 10.793 376.294 10.793C376.782 10.793 377.217 10.8874 377.598 11.0762C377.982 11.265 378.278 11.5254 378.486 11.8574C378.698 12.1895 378.804 12.5524 378.804 12.9463H377.861C377.861 12.5166 377.725 12.1797 377.451 11.9355C377.178 11.6882 376.792 11.5645 376.294 11.5645C375.832 11.5645 375.47 11.667 375.21 11.8721C374.953 12.0739 374.824 12.3555 374.824 12.7168C374.824 13.0065 374.946 13.2523 375.19 13.4541C375.438 13.6527 375.856 13.835 376.445 14.001C377.038 14.167 377.5 14.3509 377.832 14.5527C378.167 14.7513 378.415 14.984 378.574 15.251C378.737 15.5179 378.818 15.832 378.818 16.1934C378.818 16.7695 378.594 17.2318 378.145 17.5801C377.695 17.9251 377.095 18.0977 376.343 18.0977C375.854 18.0977 375.399 18.0049 374.976 17.8193C374.552 17.6305 374.225 17.3734 373.994 17.0479C373.766 16.7223 373.652 16.3529 373.652 15.9395H374.595C374.595 16.3691 374.753 16.7093 375.068 16.96C375.387 17.2074 375.812 17.3311 376.343 17.3311C376.838 17.3311 377.217 17.2301 377.48 17.0283C377.744 16.8265 377.876 16.5514 377.876 16.2031C377.876 15.8548 377.754 15.5863 377.51 15.3975C377.266 15.2054 376.823 15.0166 376.182 14.8311ZM384.6 14.8311C383.796 14.5999 383.21 14.3167 382.842 13.9814C382.477 13.6429 382.295 13.2262 382.295 12.7314C382.295 12.1715 382.518 11.7093 382.964 11.3447C383.413 10.9769 383.996 10.793 384.712 10.793C385.2 10.793 385.635 10.8874 386.016 11.0762C386.4 11.265 386.696 11.5254 386.904 11.8574C387.116 12.1895 387.222 12.5524 387.222 12.9463H386.279C386.279 12.5166 386.143 12.1797 385.869 11.9355C385.596 11.6882 385.21 11.5645 384.712 11.5645C384.25 11.5645 383.888 11.667 383.628 11.8721C383.371 12.0739 383.242 12.3555 383.242 12.7168C383.242 13.0065 383.364 13.2523 383.608 13.4541C383.856 13.6527 384.274 13.835 384.863 14.001C385.456 14.167 385.918 14.3509 386.25 14.5527C386.585 14.7513 386.833 14.984 386.992 15.251C387.155 15.5179 387.236 15.832 387.236 16.1934C387.236 16.7695 387.012 17.2318 386.562 17.5801C386.113 17.9251 385.513 18.0977 384.761 18.0977C384.272 18.0977 383.817 18.0049 383.394 17.8193C382.97 17.6305 382.643 17.3734 382.412 17.0479C382.184 16.7223 382.07 16.3529 382.07 15.9395H383.013C383.013 16.3691 383.171 16.7093 383.486 16.96C383.805 17.2074 384.23 17.3311 384.761 17.3311C385.256 17.3311 385.635 17.2301 385.898 17.0283C386.162 16.8265 386.294 16.5514 386.294 16.2031C386.294 15.8548 386.172 15.5863 385.928 15.3975C385.684 15.2054 385.241 15.0166 384.6 14.8311ZM389.204 13.3564C389.604 12.8649 390.125 12.6191 390.767 12.6191C391.883 12.6191 392.446 13.249 392.456 14.5088V18H391.553V14.5039C391.549 14.123 391.462 13.8415 391.289 13.6592C391.12 13.4769 390.854 13.3857 390.493 13.3857C390.2 13.3857 389.943 13.4639 389.722 13.6201C389.5 13.7764 389.328 13.9814 389.204 14.2354V18H388.301V10.5H389.204V13.3564ZM394.79 18H393.887V12.7168H394.79V18ZM393.813 11.3154C393.813 11.1689 393.857 11.0452 393.945 10.9443C394.036 10.8434 394.17 10.793 394.346 10.793C394.521 10.793 394.655 10.8434 394.746 10.9443C394.837 11.0452 394.883 11.1689 394.883 11.3154C394.883 11.4619 394.837 11.584 394.746 11.6816C394.655 11.7793 394.521 11.8281 394.346 11.8281C394.17 11.8281 394.036 11.7793 393.945 11.6816C393.857 11.584 393.813 11.4619 393.813 11.3154ZM400.703 15.417C400.703 16.221 400.519 16.8688 400.151 17.3604C399.784 17.8519 399.285 18.0977 398.657 18.0977C398.016 18.0977 397.511 17.8942 397.144 17.4873V20.0312H396.24V12.7168H397.065L397.109 13.3027C397.477 12.847 397.988 12.6191 398.643 12.6191C399.277 12.6191 399.779 12.8584 400.146 13.3369C400.518 13.8154 400.703 14.4811 400.703 15.334V15.417ZM399.8 15.3145C399.8 14.7188 399.673 14.2484 399.419 13.9033C399.165 13.5583 398.817 13.3857 398.374 13.3857C397.827 13.3857 397.417 13.6283 397.144 14.1133V16.6377C397.414 17.1195 397.827 17.3604 398.384 17.3604C398.817 17.3604 399.16 17.1895 399.414 16.8477C399.671 16.5026 399.8 15.9915 399.8 15.3145ZM406.318 15.417C406.318 16.221 406.134 16.8688 405.767 17.3604C405.399 17.8519 404.901 18.0977 404.272 18.0977C403.631 18.0977 403.127 17.8942 402.759 17.4873V20.0312H401.855V12.7168H402.681L402.725 13.3027C403.092 12.847 403.604 12.6191 404.258 12.6191C404.893 12.6191 405.394 12.8584 405.762 13.3369C406.133 13.8154 406.318 14.4811 406.318 15.334V15.417ZM405.415 15.3145C405.415 14.7188 405.288 14.2484 405.034 13.9033C404.78 13.5583 404.432 13.3857 403.989 13.3857C403.442 13.3857 403.032 13.6283 402.759 14.1133V16.6377C403.029 17.1195 403.442 17.3604 403.999 17.3604C404.432 17.3604 404.775 17.1895 405.029 16.8477C405.286 16.5026 405.415 15.9915 405.415 15.3145ZM408.452 18H407.549V12.7168H408.452V18ZM407.476 11.3154C407.476 11.1689 407.52 11.0452 407.607 10.9443C407.699 10.8434 407.832 10.793 408.008 10.793C408.184 10.793 408.317 10.8434 408.408 10.9443C408.499 11.0452 408.545 11.1689 408.545 11.3154C408.545 11.4619 408.499 11.584 408.408 11.6816C408.317 11.7793 408.184 11.8281 408.008 11.8281C407.832 11.8281 407.699 11.7793 407.607 11.6816C407.52 11.584 407.476 11.4619 407.476 11.3154ZM410.757 12.7168L410.786 13.3809C411.19 12.873 411.717 12.6191 412.368 12.6191C413.485 12.6191 414.048 13.249 414.058 14.5088V18H413.154V14.5039C413.151 14.123 413.063 13.8415 412.891 13.6592C412.721 13.4769 412.456 13.3857 412.095 13.3857C411.802 13.3857 411.545 13.4639 411.323 13.6201C411.102 13.7764 410.929 13.9814 410.806 14.2354V18H409.902V12.7168H410.757ZM415.205 15.3145C415.205 14.4909 415.396 13.8366 415.776 13.3516C416.157 12.8633 416.662 12.6191 417.29 12.6191C417.935 12.6191 418.438 12.847 418.799 13.3027L418.843 12.7168H419.668V17.873C419.668 18.5566 419.465 19.0954 419.058 19.4893C418.654 19.8831 418.11 20.0801 417.427 20.0801C417.046 20.0801 416.673 19.9987 416.309 19.8359C415.944 19.6732 415.666 19.4502 415.474 19.167L415.942 18.625C416.33 19.1035 416.803 19.3428 417.363 19.3428C417.803 19.3428 418.145 19.2191 418.389 18.9717C418.636 18.7243 418.76 18.376 418.76 17.9268V17.4727C418.398 17.8893 417.905 18.0977 417.28 18.0977C416.662 18.0977 416.16 17.8486 415.776 17.3506C415.396 16.8525 415.205 16.1738 415.205 15.3145ZM416.113 15.417C416.113 16.0127 416.235 16.4814 416.479 16.8232C416.724 17.1618 417.065 17.3311 417.505 17.3311C418.075 17.3311 418.493 17.0723 418.76 16.5547V14.1426C418.483 13.638 418.068 13.3857 417.515 13.3857C417.075 13.3857 416.732 13.5566 416.484 13.8984C416.237 14.2402 416.113 14.7464 416.113 15.417ZM423.325 16.0908C423.325 15.749 423.42 15.4349 423.608 15.1484C423.8 14.862 424.165 14.5283 424.702 14.1475C424.386 13.7633 424.175 13.4541 424.067 13.2197C423.96 12.9854 423.906 12.7526 423.906 12.5215C423.906 11.9811 424.066 11.5579 424.385 11.252C424.704 10.946 425.137 10.793 425.684 10.793C426.172 10.793 426.576 10.9362 426.895 11.2227C427.214 11.5059 427.373 11.8639 427.373 12.2969C427.373 12.5833 427.3 12.8486 427.153 13.0928C427.01 13.3337 426.758 13.5876 426.396 13.8545L425.874 14.2402L427.456 16.1299C427.677 15.7067 427.788 15.2363 427.788 14.7188H428.604C428.604 15.5488 428.403 16.2373 428.003 16.7842L429.019 18H427.935L427.461 17.4385C427.22 17.6533 426.937 17.8177 426.611 17.9316C426.289 18.0423 425.96 18.0977 425.625 18.0977C424.932 18.0977 424.375 17.9137 423.955 17.5459C423.535 17.1781 423.325 16.693 423.325 16.0908ZM425.625 17.3604C426.104 17.3604 426.541 17.1781 426.938 16.8135L425.205 14.7383L425.044 14.8555C424.5 15.2559 424.229 15.6676 424.229 16.0908C424.229 16.4749 424.352 16.7826 424.6 17.0137C424.85 17.2448 425.192 17.3604 425.625 17.3604ZM424.81 12.4922C424.81 12.8047 425.002 13.1953 425.386 13.6641L425.962 13.2588C426.183 13.1025 426.335 12.9544 426.416 12.8145C426.497 12.6712 426.538 12.4987 426.538 12.2969C426.538 12.0788 426.457 11.8981 426.294 11.7549C426.131 11.6084 425.926 11.5352 425.679 11.5352C425.412 11.5352 425.2 11.6263 425.044 11.8086C424.888 11.9876 424.81 12.2155 424.81 12.4922ZM434.966 15.124H433.296V18H432.354V10.8906H434.707C435.508 10.8906 436.123 11.0729 436.553 11.4375C436.986 11.8021 437.202 12.3327 437.202 13.0293C437.202 13.472 437.082 13.8577 436.841 14.1865C436.603 14.5153 436.271 14.7611 435.845 14.9238L437.515 17.9414V18H436.509L434.966 15.124ZM433.296 14.3574H434.736C435.202 14.3574 435.571 14.237 435.845 13.9961C436.121 13.7552 436.26 13.4329 436.26 13.0293C436.26 12.5898 436.128 12.2529 435.864 12.0186C435.604 11.7842 435.226 11.6654 434.731 11.6621H433.296V14.3574ZM440.571 18.0977C439.855 18.0977 439.272 17.8633 438.823 17.3945C438.374 16.9225 438.149 16.2926 438.149 15.5049V15.3389C438.149 14.8148 438.249 14.3477 438.447 13.9375C438.649 13.5241 438.929 13.2018 439.287 12.9707C439.648 12.7363 440.039 12.6191 440.459 12.6191C441.146 12.6191 441.68 12.8454 442.061 13.2979C442.441 13.7503 442.632 14.3981 442.632 15.2412V15.6172H439.053C439.066 16.138 439.217 16.5596 439.507 16.8818C439.8 17.2008 440.171 17.3604 440.62 17.3604C440.939 17.3604 441.209 17.2952 441.431 17.165C441.652 17.0348 441.846 16.8623 442.012 16.6475L442.563 17.0771C442.121 17.7575 441.457 18.0977 440.571 18.0977ZM440.459 13.3613C440.094 13.3613 439.788 13.4948 439.541 13.7617C439.294 14.0254 439.141 14.3965 439.082 14.875H441.729V14.8066C441.702 14.3477 441.579 13.9928 441.357 13.7422C441.136 13.4883 440.837 13.3613 440.459 13.3613ZM444.907 11.4375V12.7168H445.894V13.415H444.907V16.6914C444.907 16.903 444.951 17.0625 445.039 17.1699C445.127 17.2741 445.277 17.3262 445.488 17.3262C445.592 17.3262 445.736 17.3066 445.918 17.2676V18C445.68 18.0651 445.449 18.0977 445.225 18.0977C444.821 18.0977 444.517 17.9756 444.312 17.7314C444.106 17.4873 444.004 17.1406 444.004 16.6914V13.415H443.042V12.7168H444.004V11.4375H444.907ZM450.215 17.4775C449.863 17.891 449.347 18.0977 448.667 18.0977C448.104 18.0977 447.674 17.9349 447.378 17.6094C447.085 17.2806 446.937 16.7956 446.934 16.1543V12.7168H447.837V16.1299C447.837 16.9307 448.162 17.3311 448.813 17.3311C449.504 17.3311 449.963 17.0739 450.19 16.5596V12.7168H451.094V18H450.234L450.215 17.4775ZM455.024 13.5273C454.888 13.5046 454.74 13.4932 454.58 13.4932C453.988 13.4932 453.586 13.7454 453.374 14.25V18H452.471V12.7168H453.35L453.364 13.3271C453.66 12.8551 454.08 12.6191 454.624 12.6191C454.8 12.6191 454.933 12.6419 455.024 12.6875V13.5273ZM456.714 12.7168L456.743 13.3809C457.147 12.873 457.674 12.6191 458.325 12.6191C459.442 12.6191 460.005 13.249 460.015 14.5088V18H459.111V14.5039C459.108 14.123 459.02 13.8415 458.848 13.6592C458.678 13.4769 458.413 13.3857 458.052 13.3857C457.759 13.3857 457.502 13.4639 457.28 13.6201C457.059 13.7764 456.886 13.9814 456.763 14.2354V18H455.859V12.7168H456.714ZM464.453 16.5986C464.453 16.3545 464.36 16.1657 464.175 16.0322C463.993 15.8955 463.672 15.7783 463.213 15.6807C462.757 15.583 462.394 15.4658 462.124 15.3291C461.857 15.1924 461.659 15.0296 461.528 14.8408C461.401 14.652 461.338 14.4274 461.338 14.167C461.338 13.734 461.52 13.3678 461.885 13.0684C462.253 12.7689 462.721 12.6191 463.291 12.6191C463.89 12.6191 464.375 12.7738 464.746 13.083C465.12 13.3923 465.308 13.7878 465.308 14.2695H464.399C464.399 14.0221 464.294 13.8089 464.082 13.6299C463.874 13.4508 463.61 13.3613 463.291 13.3613C462.962 13.3613 462.705 13.4329 462.52 13.5762C462.334 13.7194 462.241 13.9066 462.241 14.1377C462.241 14.3558 462.327 14.5202 462.5 14.6309C462.673 14.7415 462.983 14.8473 463.433 14.9482C463.885 15.0492 464.251 15.1696 464.531 15.3096C464.811 15.4495 465.018 15.6188 465.151 15.8174C465.288 16.0127 465.356 16.252 465.356 16.5352C465.356 17.0072 465.168 17.3864 464.79 17.6729C464.412 17.9561 463.923 18.0977 463.32 18.0977C462.897 18.0977 462.523 18.0228 462.197 17.873C461.872 17.7233 461.616 17.515 461.431 17.248C461.248 16.9779 461.157 16.6865 461.157 16.374H462.061C462.077 16.6768 462.197 16.9176 462.422 17.0967C462.65 17.2725 462.949 17.3604 463.32 17.3604C463.662 17.3604 463.936 17.292 464.141 17.1553C464.349 17.0153 464.453 16.8298 464.453 16.5986Z" fill="#808080"/>
<path d="M530.746 14.8604H527.763V18H526.825V10.8906H531.229V11.6621H527.763V14.0938H530.746V14.8604ZM534.638 13.5273C534.501 13.5046 534.353 13.4932 534.193 13.4932C533.601 13.4932 533.199 13.7454 532.987 14.25V18H532.084V12.7168H532.963L532.978 13.3271C533.274 12.8551 533.694 12.6191 534.237 12.6191C534.413 12.6191 534.547 12.6419 534.638 12.6875V13.5273ZM537.567 18.0977C536.851 18.0977 536.269 17.8633 535.819 17.3945C535.37 16.9225 535.146 16.2926 535.146 15.5049V15.3389C535.146 14.8148 535.245 14.3477 535.443 13.9375C535.645 13.5241 535.925 13.2018 536.283 12.9707C536.645 12.7363 537.035 12.6191 537.455 12.6191C538.142 12.6191 538.676 12.8454 539.057 13.2979C539.438 13.7503 539.628 14.3981 539.628 15.2412V15.6172H536.049C536.062 16.138 536.213 16.5596 536.503 16.8818C536.796 17.2008 537.167 17.3604 537.616 17.3604C537.935 17.3604 538.205 17.2952 538.427 17.165C538.648 17.0348 538.842 16.8623 539.008 16.6475L539.56 17.0771C539.117 17.7575 538.453 18.0977 537.567 18.0977ZM537.455 13.3613C537.09 13.3613 536.785 13.4948 536.537 13.7617C536.29 14.0254 536.137 14.3965 536.078 14.875H538.725V14.8066C538.699 14.3477 538.575 13.9928 538.354 13.7422C538.132 13.4883 537.833 13.3613 537.455 13.3613ZM542.87 18.0977C542.154 18.0977 541.571 17.8633 541.122 17.3945C540.673 16.9225 540.448 16.2926 540.448 15.5049V15.3389C540.448 14.8148 540.548 14.3477 540.746 13.9375C540.948 13.5241 541.228 13.2018 541.586 12.9707C541.947 12.7363 542.338 12.6191 542.758 12.6191C543.445 12.6191 543.979 12.8454 544.359 13.2979C544.74 13.7503 544.931 14.3981 544.931 15.2412V15.6172H541.352C541.365 16.138 541.516 16.5596 541.806 16.8818C542.099 17.2008 542.47 17.3604 542.919 17.3604C543.238 17.3604 543.508 17.2952 543.729 17.165C543.951 17.0348 544.145 16.8623 544.311 16.6475L544.862 17.0771C544.42 17.7575 543.756 18.0977 542.87 18.0977ZM542.758 13.3613C542.393 13.3613 542.087 13.4948 541.84 13.7617C541.592 14.0254 541.439 14.3965 541.381 14.875H544.027V14.8066C544.001 14.3477 543.878 13.9928 543.656 13.7422C543.435 13.4883 543.135 13.3613 542.758 13.3613ZM553.832 15.7441C553.744 16.4961 553.466 17.0771 552.997 17.4873C552.532 17.8942 551.911 18.0977 551.137 18.0977C550.297 18.0977 549.623 17.7965 549.115 17.1943C548.611 16.5921 548.358 15.7865 548.358 14.7773V14.0938C548.358 13.4329 548.476 12.8519 548.71 12.3506C548.948 11.8493 549.283 11.4652 549.716 11.1982C550.149 10.9281 550.65 10.793 551.22 10.793C551.975 10.793 552.58 11.0046 553.036 11.4277C553.492 11.8477 553.757 12.4303 553.832 13.1758H552.89C552.808 12.6094 552.631 12.1992 552.357 11.9453C552.087 11.6914 551.708 11.5645 551.22 11.5645C550.621 11.5645 550.15 11.7858 549.809 12.2285C549.47 12.6712 549.301 13.3011 549.301 14.1182V14.8066C549.301 15.5781 549.462 16.1917 549.784 16.6475C550.106 17.1032 550.557 17.3311 551.137 17.3311C551.658 17.3311 552.056 17.2139 552.333 16.9795C552.613 16.7419 552.799 16.3301 552.89 15.7441H553.832ZM558.236 17.4775C557.885 17.891 557.369 18.0977 556.688 18.0977C556.125 18.0977 555.696 17.9349 555.399 17.6094C555.106 17.2806 554.958 16.7956 554.955 16.1543V12.7168H555.858V16.1299C555.858 16.9307 556.184 17.3311 556.835 17.3311C557.525 17.3311 557.984 17.0739 558.212 16.5596V12.7168H559.115V18H558.256L558.236 17.4775ZM563.568 16.5986C563.568 16.3545 563.476 16.1657 563.29 16.0322C563.108 15.8955 562.787 15.7783 562.328 15.6807C561.872 15.583 561.509 15.4658 561.239 15.3291C560.972 15.1924 560.774 15.0296 560.644 14.8408C560.517 14.652 560.453 14.4274 560.453 14.167C560.453 13.734 560.635 13.3678 561 13.0684C561.368 12.7689 561.837 12.6191 562.406 12.6191C563.005 12.6191 563.49 12.7738 563.861 13.083C564.236 13.3923 564.423 13.7878 564.423 14.2695H563.515C563.515 14.0221 563.409 13.8089 563.197 13.6299C562.989 13.4508 562.725 13.3613 562.406 13.3613C562.077 13.3613 561.82 13.4329 561.635 13.5762C561.449 13.7194 561.356 13.9066 561.356 14.1377C561.356 14.3558 561.443 14.5202 561.615 14.6309C561.788 14.7415 562.099 14.8473 562.548 14.9482C563 15.0492 563.367 15.1696 563.646 15.3096C563.926 15.4495 564.133 15.6188 564.267 15.8174C564.403 16.0127 564.472 16.252 564.472 16.5352C564.472 17.0072 564.283 17.3864 563.905 17.6729C563.528 17.9561 563.038 18.0977 562.436 18.0977C562.012 18.0977 561.638 18.0228 561.312 17.873C560.987 17.7233 560.731 17.515 560.546 17.248C560.364 16.9779 560.272 16.6865 560.272 16.374H561.176C561.192 16.6768 561.312 16.9176 561.537 17.0967C561.765 17.2725 562.064 17.3604 562.436 17.3604C562.777 17.3604 563.051 17.292 563.256 17.1553C563.464 17.0153 563.568 16.8298 563.568 16.5986ZM566.874 11.4375V12.7168H567.86V13.415H566.874V16.6914C566.874 16.903 566.918 17.0625 567.006 17.1699C567.094 17.2741 567.243 17.3262 567.455 17.3262C567.559 17.3262 567.702 17.3066 567.885 17.2676V18C567.647 18.0651 567.416 18.0977 567.191 18.0977C566.788 18.0977 566.483 17.9756 566.278 17.7314C566.073 17.4873 565.971 17.1406 565.971 16.6914V13.415H565.009V12.7168H565.971V11.4375H566.874ZM568.583 15.3096C568.583 14.792 568.684 14.3265 568.886 13.9131C569.091 13.4997 569.374 13.1807 569.735 12.9561C570.1 12.7314 570.515 12.6191 570.98 12.6191C571.7 12.6191 572.281 12.8682 572.724 13.3662C573.17 13.8643 573.393 14.5267 573.393 15.3535V15.417C573.393 15.9313 573.293 16.3936 573.095 16.8037C572.899 17.2106 572.618 17.528 572.25 17.7559C571.885 17.9837 571.465 18.0977 570.99 18.0977C570.274 18.0977 569.693 17.8486 569.247 17.3506C568.804 16.8525 568.583 16.1934 568.583 15.373V15.3096ZM569.491 15.417C569.491 16.0029 569.626 16.4733 569.896 16.8281C570.17 17.1829 570.535 17.3604 570.99 17.3604C571.449 17.3604 571.814 17.1813 572.084 16.8232C572.354 16.4619 572.489 15.9574 572.489 15.3096C572.489 14.7301 572.351 14.2614 572.074 13.9033C571.801 13.542 571.436 13.3613 570.98 13.3613C570.535 13.3613 570.175 13.5387 569.901 13.8936C569.628 14.2484 569.491 14.7562 569.491 15.417ZM575.375 12.7168L575.399 13.3027C575.787 12.847 576.309 12.6191 576.967 12.6191C577.706 12.6191 578.209 12.9023 578.476 13.4688C578.651 13.2148 578.879 13.0098 579.159 12.8535C579.442 12.6973 579.776 12.6191 580.16 12.6191C581.319 12.6191 581.908 13.2327 581.928 14.46V18H581.024V14.5137C581.024 14.1361 580.938 13.8545 580.766 13.6689C580.593 13.4801 580.303 13.3857 579.896 13.3857C579.561 13.3857 579.283 13.4867 579.062 13.6885C578.84 13.887 578.712 14.1556 578.676 14.4941V18H577.768V14.5381C577.768 13.7699 577.392 13.3857 576.64 13.3857C576.047 13.3857 575.642 13.638 575.424 14.1426V18H574.521V12.7168H575.375ZM586.854 15.2168V18H585.917V10.8906H588.539C589.317 10.8906 589.926 11.0892 590.365 11.4863C590.808 11.8835 591.029 12.4092 591.029 13.0635C591.029 13.7536 590.813 14.2858 590.38 14.6602C589.95 15.0312 589.333 15.2168 588.529 15.2168H586.854ZM586.854 14.4502H588.539C589.04 14.4502 589.424 14.333 589.691 14.0986C589.958 13.861 590.092 13.5192 590.092 13.0732C590.092 12.6501 589.958 12.3115 589.691 12.0576C589.424 11.8037 589.058 11.6719 588.593 11.6621H586.854V14.4502ZM594.638 13.5273C594.501 13.5046 594.353 13.4932 594.193 13.4932C593.601 13.4932 593.199 13.7454 592.987 14.25V18H592.084V12.7168H592.963L592.978 13.3271C593.274 12.8551 593.694 12.6191 594.237 12.6191C594.413 12.6191 594.547 12.6419 594.638 12.6875V13.5273ZM596.454 18H595.551V12.7168H596.454V18ZM595.478 11.3154C595.478 11.1689 595.521 11.0452 595.609 10.9443C595.701 10.8434 595.834 10.793 596.01 10.793C596.186 10.793 596.319 10.8434 596.41 10.9443C596.501 11.0452 596.547 11.1689 596.547 11.3154C596.547 11.4619 596.501 11.584 596.41 11.6816C596.319 11.7793 596.186 11.8281 596.01 11.8281C595.834 11.8281 595.701 11.7793 595.609 11.6816C595.521 11.584 595.478 11.4619 595.478 11.3154ZM598.759 12.7168L598.788 13.3809C599.192 12.873 599.719 12.6191 600.37 12.6191C601.487 12.6191 602.05 13.249 602.06 14.5088V18H601.156V14.5039C601.153 14.123 601.065 13.8415 600.893 13.6592C600.723 13.4769 600.458 13.3857 600.097 13.3857C599.804 13.3857 599.547 13.4639 599.325 13.6201C599.104 13.7764 598.931 13.9814 598.808 14.2354V18H597.904V12.7168H598.759ZM604.647 11.4375V12.7168H605.634V13.415H604.647V16.6914C604.647 16.903 604.691 17.0625 604.779 17.1699C604.867 17.2741 605.017 17.3262 605.229 17.3262C605.333 17.3262 605.476 17.3066 605.658 17.2676V18C605.421 18.0651 605.189 18.0977 604.965 18.0977C604.561 18.0977 604.257 17.9756 604.052 17.7314C603.847 17.4873 603.744 17.1406 603.744 16.6914V13.415H602.782V12.7168H603.744V11.4375H604.647ZM607.675 18H606.771V12.7168H607.675V18ZM606.698 11.3154C606.698 11.1689 606.742 11.0452 606.83 10.9443C606.921 10.8434 607.055 10.793 607.23 10.793C607.406 10.793 607.54 10.8434 607.631 10.9443C607.722 11.0452 607.768 11.1689 607.768 11.3154C607.768 11.4619 607.722 11.584 607.631 11.6816C607.54 11.7793 607.406 11.8281 607.23 11.8281C607.055 11.8281 606.921 11.7793 606.83 11.6816C606.742 11.584 606.698 11.4619 606.698 11.3154ZM609.979 12.7168L610.009 13.3809C610.412 12.873 610.94 12.6191 611.591 12.6191C612.707 12.6191 613.271 13.249 613.28 14.5088V18H612.377V14.5039C612.374 14.123 612.286 13.8415 612.113 13.6592C611.944 13.4769 611.679 13.3857 611.317 13.3857C611.024 13.3857 610.767 13.4639 610.546 13.6201C610.325 13.7764 610.152 13.9814 610.028 14.2354V18H609.125V12.7168H609.979ZM614.428 15.3145C614.428 14.4909 614.618 13.8366 614.999 13.3516C615.38 12.8633 615.884 12.6191 616.513 12.6191C617.157 12.6191 617.66 12.847 618.021 13.3027L618.065 12.7168H618.891V17.873C618.891 18.5566 618.687 19.0954 618.28 19.4893C617.877 19.8831 617.333 20.0801 616.649 20.0801C616.269 20.0801 615.896 19.9987 615.531 19.8359C615.167 19.6732 614.888 19.4502 614.696 19.167L615.165 18.625C615.552 19.1035 616.026 19.3428 616.586 19.3428C617.025 19.3428 617.367 19.2191 617.611 18.9717C617.859 18.7243 617.982 18.376 617.982 17.9268V17.4727C617.621 17.8893 617.128 18.0977 616.503 18.0977C615.884 18.0977 615.383 17.8486 614.999 17.3506C614.618 16.8525 614.428 16.1738 614.428 15.3145ZM615.336 15.417C615.336 16.0127 615.458 16.4814 615.702 16.8232C615.946 17.1618 616.288 17.3311 616.728 17.3311C617.297 17.3311 617.715 17.0723 617.982 16.5547V14.1426C617.706 13.638 617.291 13.3857 616.737 13.3857C616.298 13.3857 615.954 13.5566 615.707 13.8984C615.46 14.2402 615.336 14.7464 615.336 15.417ZM624.091 10.8906L626.415 16.6914L628.739 10.8906H629.955V18H629.018V15.2314L629.105 12.2432L626.771 18H626.054L623.725 12.2578L623.817 15.2314V18H622.88V10.8906H624.091ZM631.229 15.3096C631.229 14.792 631.33 14.3265 631.532 13.9131C631.737 13.4997 632.021 13.1807 632.382 12.9561C632.746 12.7314 633.161 12.6191 633.627 12.6191C634.346 12.6191 634.927 12.8682 635.37 13.3662C635.816 13.8643 636.039 14.5267 636.039 15.3535V15.417C636.039 15.9313 635.94 16.3936 635.741 16.8037C635.546 17.2106 635.264 17.528 634.896 17.7559C634.532 17.9837 634.112 18.0977 633.637 18.0977C632.921 18.0977 632.34 17.8486 631.894 17.3506C631.451 16.8525 631.229 16.1934 631.229 15.373V15.3096ZM632.138 15.417C632.138 16.0029 632.273 16.4733 632.543 16.8281C632.816 17.1829 633.181 17.3604 633.637 17.3604C634.096 17.3604 634.46 17.1813 634.73 16.8232C635.001 16.4619 635.136 15.9574 635.136 15.3096C635.136 14.7301 634.997 14.2614 634.721 13.9033C634.447 13.542 634.083 13.3613 633.627 13.3613C633.181 13.3613 632.821 13.5387 632.548 13.8936C632.274 14.2484 632.138 14.7562 632.138 15.417ZM639.291 17.3604C639.613 17.3604 639.895 17.2627 640.136 17.0674C640.377 16.8721 640.51 16.6279 640.536 16.335H641.391C641.374 16.6377 641.27 16.9258 641.078 17.1992C640.886 17.4727 640.629 17.6908 640.307 17.8535C639.988 18.0163 639.649 18.0977 639.291 18.0977C638.572 18.0977 637.999 17.8584 637.572 17.3799C637.149 16.8981 636.938 16.2406 636.938 15.4072V15.2559C636.938 14.7415 637.032 14.2842 637.221 13.8838C637.41 13.4834 637.68 13.1725 638.031 12.9512C638.386 12.7298 638.804 12.6191 639.286 12.6191C639.879 12.6191 640.37 12.7965 640.761 13.1514C641.155 13.5062 641.365 13.9668 641.391 14.5332H640.536C640.51 14.1914 640.38 13.9115 640.146 13.6934C639.914 13.472 639.628 13.3613 639.286 13.3613C638.827 13.3613 638.471 13.5273 638.217 13.8594C637.966 14.1882 637.841 14.665 637.841 15.29V15.4609C637.841 16.0697 637.966 16.5384 638.217 16.8672C638.467 17.196 638.826 17.3604 639.291 17.3604ZM643.881 15.5537L643.314 16.1445V18H642.411V10.5H643.314V15.0361L643.798 14.4551L645.443 12.7168H646.542L644.486 14.9238L646.781 18H645.722L643.881 15.5537ZM649.354 15.3486H646.972V14.6113H649.354V15.3486ZM655.385 10.8906V15.7246C655.382 16.3952 655.17 16.9437 654.75 17.3701C654.333 17.7965 653.767 18.0358 653.051 18.0879L652.802 18.0977C652.024 18.0977 651.404 17.8877 650.941 17.4678C650.479 17.0479 650.245 16.4701 650.238 15.7344V10.8906H651.166V15.7051C651.166 16.2194 651.308 16.6198 651.591 16.9062C651.874 17.1895 652.278 17.3311 652.802 17.3311C653.332 17.3311 653.738 17.1895 654.018 16.9062C654.301 16.623 654.442 16.2243 654.442 15.71V10.8906H655.385ZM661.186 15.417C661.186 16.221 661.002 16.8688 660.634 17.3604C660.266 17.8519 659.768 18.0977 659.14 18.0977C658.498 18.0977 657.994 17.8942 657.626 17.4873V20.0312H656.723V12.7168H657.548L657.592 13.3027C657.96 12.847 658.471 12.6191 659.125 12.6191C659.76 12.6191 660.261 12.8584 660.629 13.3369C661 13.8154 661.186 14.4811 661.186 15.334V15.417ZM660.282 15.3145C660.282 14.7188 660.155 14.2484 659.901 13.9033C659.647 13.5583 659.299 13.3857 658.856 13.3857C658.31 13.3857 657.899 13.6283 657.626 14.1133V16.6377C657.896 17.1195 658.31 17.3604 658.866 17.3604C659.299 17.3604 659.643 17.1895 659.896 16.8477C660.154 16.5026 660.282 15.9915 660.282 15.3145Z" fill="#808080"/>
<path d="M726.844 14.7139H723.763V17.2334H727.342V18H722.825V10.8906H727.293V11.6621H723.763V13.9473H726.844V14.7139ZM730.14 14.6455L731.312 12.7168H732.366L730.638 15.3291L732.42 18H731.375L730.154 16.0225L728.934 18H727.884L729.666 15.3291L727.938 12.7168H728.982L730.14 14.6455ZM737.791 15.417C737.791 16.221 737.607 16.8688 737.239 17.3604C736.871 17.8519 736.373 18.0977 735.745 18.0977C735.104 18.0977 734.599 17.8942 734.231 17.4873V20.0312H733.328V12.7168H734.153L734.197 13.3027C734.565 12.847 735.076 12.6191 735.73 12.6191C736.365 12.6191 736.867 12.8584 737.234 13.3369C737.605 13.8154 737.791 14.4811 737.791 15.334V15.417ZM736.888 15.3145C736.888 14.7188 736.761 14.2484 736.507 13.9033C736.253 13.5583 735.905 13.3857 735.462 13.3857C734.915 13.3857 734.505 13.6283 734.231 14.1133V16.6377C734.502 17.1195 734.915 17.3604 735.472 17.3604C735.905 17.3604 736.248 17.1895 736.502 16.8477C736.759 16.5026 736.888 15.9915 736.888 15.3145ZM741.136 18.0977C740.42 18.0977 739.837 17.8633 739.388 17.3945C738.938 16.9225 738.714 16.2926 738.714 15.5049V15.3389C738.714 14.8148 738.813 14.3477 739.012 13.9375C739.214 13.5241 739.493 13.2018 739.852 12.9707C740.213 12.7363 740.604 12.6191 741.023 12.6191C741.71 12.6191 742.244 12.8454 742.625 13.2979C743.006 13.7503 743.196 14.3981 743.196 15.2412V15.6172H739.617C739.63 16.138 739.782 16.5596 740.071 16.8818C740.364 17.2008 740.735 17.3604 741.185 17.3604C741.504 17.3604 741.774 17.2952 741.995 17.165C742.216 17.0348 742.41 16.8623 742.576 16.6475L743.128 17.0771C742.685 17.7575 742.021 18.0977 741.136 18.0977ZM741.023 13.3613C740.659 13.3613 740.353 13.4948 740.105 13.7617C739.858 14.0254 739.705 14.3965 739.646 14.875H742.293V14.8066C742.267 14.3477 742.143 13.9928 741.922 13.7422C741.701 13.4883 741.401 13.3613 741.023 13.3613ZM746.8 13.5273C746.663 13.5046 746.515 13.4932 746.355 13.4932C745.763 13.4932 745.361 13.7454 745.149 14.25V18H744.246V12.7168H745.125L745.14 13.3271C745.436 12.8551 745.856 12.6191 746.399 12.6191C746.575 12.6191 746.709 12.6419 746.8 12.6875V13.5273ZM749.104 11.4375V12.7168H750.091V13.415H749.104V16.6914C749.104 16.903 749.148 17.0625 749.236 17.1699C749.324 17.2741 749.474 17.3262 749.686 17.3262C749.79 17.3262 749.933 17.3066 750.115 17.2676V18C749.878 18.0651 749.646 18.0977 749.422 18.0977C749.018 18.0977 748.714 17.9756 748.509 17.7314C748.304 17.4873 748.201 17.1406 748.201 16.6914V13.415H747.239V12.7168H748.201V11.4375H749.104ZM755.867 14.8311C755.063 14.5999 754.477 14.3167 754.109 13.9814C753.745 13.6429 753.562 13.2262 753.562 12.7314C753.562 12.1715 753.785 11.7093 754.231 11.3447C754.681 10.9769 755.263 10.793 755.979 10.793C756.468 10.793 756.902 10.8874 757.283 11.0762C757.667 11.265 757.964 11.5254 758.172 11.8574C758.383 12.1895 758.489 12.5524 758.489 12.9463H757.547C757.547 12.5166 757.41 12.1797 757.137 11.9355C756.863 11.6882 756.478 11.5645 755.979 11.5645C755.517 11.5645 755.156 11.667 754.896 11.8721C754.638 12.0739 754.51 12.3555 754.51 12.7168C754.51 13.0065 754.632 13.2523 754.876 13.4541C755.123 13.6527 755.542 13.835 756.131 14.001C756.723 14.167 757.186 14.3509 757.518 14.5527C757.853 14.7513 758.1 14.984 758.26 15.251C758.423 15.5179 758.504 15.832 758.504 16.1934C758.504 16.7695 758.279 17.2318 757.83 17.5801C757.381 17.9251 756.78 18.0977 756.028 18.0977C755.54 18.0977 755.084 18.0049 754.661 17.8193C754.238 17.6305 753.911 17.3734 753.68 17.0479C753.452 16.7223 753.338 16.3529 753.338 15.9395H754.28C754.28 16.3691 754.438 16.7093 754.754 16.96C755.073 17.2074 755.498 17.3311 756.028 17.3311C756.523 17.3311 756.902 17.2301 757.166 17.0283C757.43 16.8265 757.562 16.5514 757.562 16.2031C757.562 15.8548 757.439 15.5863 757.195 15.3975C756.951 15.2054 756.508 15.0166 755.867 14.8311ZM762.83 17.4775C762.479 17.891 761.963 18.0977 761.282 18.0977C760.719 18.0977 760.289 17.9349 759.993 17.6094C759.7 17.2806 759.552 16.7956 759.549 16.1543V12.7168H760.452V16.1299C760.452 16.9307 760.778 17.3311 761.429 17.3311C762.119 17.3311 762.578 17.0739 762.806 16.5596V12.7168H763.709V18H762.85L762.83 17.4775ZM769.549 15.417C769.549 16.221 769.365 16.8688 768.997 17.3604C768.629 17.8519 768.131 18.0977 767.503 18.0977C766.862 18.0977 766.357 17.8942 765.989 17.4873V20.0312H765.086V12.7168H765.911L765.955 13.3027C766.323 12.847 766.834 12.6191 767.488 12.6191C768.123 12.6191 768.624 12.8584 768.992 13.3369C769.363 13.8154 769.549 14.4811 769.549 15.334V15.417ZM768.646 15.3145C768.646 14.7188 768.519 14.2484 768.265 13.9033C768.011 13.5583 767.662 13.3857 767.22 13.3857C766.673 13.3857 766.263 13.6283 765.989 14.1133V16.6377C766.259 17.1195 766.673 17.3604 767.229 17.3604C767.662 17.3604 768.006 17.1895 768.26 16.8477C768.517 16.5026 768.646 15.9915 768.646 15.3145ZM775.164 15.417C775.164 16.221 774.98 16.8688 774.612 17.3604C774.244 17.8519 773.746 18.0977 773.118 18.0977C772.477 18.0977 771.972 17.8942 771.604 17.4873V20.0312H770.701V12.7168H771.526L771.57 13.3027C771.938 12.847 772.449 12.6191 773.104 12.6191C773.738 12.6191 774.24 12.8584 774.607 13.3369C774.979 13.8154 775.164 14.4811 775.164 15.334V15.417ZM774.261 15.3145C774.261 14.7188 774.134 14.2484 773.88 13.9033C773.626 13.5583 773.278 13.3857 772.835 13.3857C772.288 13.3857 771.878 13.6283 771.604 14.1133V16.6377C771.875 17.1195 772.288 17.3604 772.845 17.3604C773.278 17.3604 773.621 17.1895 773.875 16.8477C774.132 16.5026 774.261 15.9915 774.261 15.3145ZM776.077 15.3096C776.077 14.792 776.178 14.3265 776.38 13.9131C776.585 13.4997 776.868 13.1807 777.229 12.9561C777.594 12.7314 778.009 12.6191 778.475 12.6191C779.194 12.6191 779.775 12.8682 780.218 13.3662C780.664 13.8643 780.887 14.5267 780.887 15.3535V15.417C780.887 15.9313 780.787 16.3936 780.589 16.8037C780.394 17.2106 780.112 17.528 779.744 17.7559C779.38 17.9837 778.96 18.0977 778.484 18.0977C777.768 18.0977 777.187 17.8486 776.741 17.3506C776.299 16.8525 776.077 16.1934 776.077 15.373V15.3096ZM776.985 15.417C776.985 16.0029 777.12 16.4733 777.391 16.8281C777.664 17.1829 778.029 17.3604 778.484 17.3604C778.943 17.3604 779.308 17.1813 779.578 16.8232C779.848 16.4619 779.983 15.9574 779.983 15.3096C779.983 14.7301 779.845 14.2614 779.568 13.9033C779.295 13.542 778.93 13.3613 778.475 13.3613C778.029 13.3613 777.669 13.5387 777.396 13.8936C777.122 14.2484 776.985 14.7562 776.985 15.417ZM784.573 13.5273C784.437 13.5046 784.288 13.4932 784.129 13.4932C783.536 13.4932 783.134 13.7454 782.923 14.25V18H782.02V12.7168H782.898L782.913 13.3271C783.209 12.8551 783.629 12.6191 784.173 12.6191C784.349 12.6191 784.482 12.6419 784.573 12.6875V13.5273ZM786.878 11.4375V12.7168H787.864V13.415H786.878V16.6914C786.878 16.903 786.922 17.0625 787.01 17.1699C787.098 17.2741 787.247 17.3262 787.459 17.3262C787.563 17.3262 787.706 17.3066 787.889 17.2676V18C787.651 18.0651 787.42 18.0977 787.195 18.0977C786.792 18.0977 786.487 17.9756 786.282 17.7314C786.077 17.4873 785.975 17.1406 785.975 16.6914V13.415H785.013V12.7168H785.975V11.4375H786.878ZM796.263 11.6621H793.978V18H793.045V11.6621H790.765V10.8906H796.263V11.6621ZM798.88 18.0977C798.164 18.0977 797.581 17.8633 797.132 17.3945C796.683 16.9225 796.458 16.2926 796.458 15.5049V15.3389C796.458 14.8148 796.557 14.3477 796.756 13.9375C796.958 13.5241 797.238 13.2018 797.596 12.9707C797.957 12.7363 798.348 12.6191 798.768 12.6191C799.454 12.6191 799.988 12.8454 800.369 13.2979C800.75 13.7503 800.94 14.3981 800.94 15.2412V15.6172H797.361C797.374 16.138 797.526 16.5596 797.815 16.8818C798.108 17.2008 798.479 17.3604 798.929 17.3604C799.248 17.3604 799.518 17.2952 799.739 17.165C799.961 17.0348 800.154 16.8623 800.32 16.6475L800.872 17.0771C800.429 17.7575 799.765 18.0977 798.88 18.0977ZM798.768 13.3613C798.403 13.3613 798.097 13.4948 797.85 13.7617C797.602 14.0254 797.449 14.3965 797.391 14.875H800.037V14.8066C800.011 14.3477 799.887 13.9928 799.666 13.7422C799.445 13.4883 799.145 13.3613 798.768 13.3613ZM805.252 18C805.2 17.8958 805.158 17.7103 805.125 17.4434C804.705 17.8796 804.204 18.0977 803.621 18.0977C803.1 18.0977 802.672 17.9512 802.337 17.6582C802.005 17.362 801.839 16.9876 801.839 16.5352C801.839 15.985 802.047 15.5586 802.464 15.2559C802.884 14.9499 803.473 14.7969 804.231 14.7969H805.11V14.3818C805.11 14.0661 805.016 13.8154 804.827 13.6299C804.638 13.4411 804.36 13.3467 803.992 13.3467C803.67 13.3467 803.4 13.4281 803.182 13.5908C802.964 13.7536 802.854 13.9505 802.854 14.1816H801.946C801.946 13.918 802.039 13.6641 802.225 13.4199C802.413 13.1725 802.667 12.9772 802.986 12.834C803.309 12.6908 803.662 12.6191 804.046 12.6191C804.655 12.6191 805.132 12.7721 805.477 13.0781C805.822 13.3809 806.001 13.7992 806.014 14.333V16.7646C806.014 17.2497 806.076 17.6354 806.199 17.9219V18H805.252ZM803.753 17.3115C804.036 17.3115 804.305 17.2383 804.559 17.0918C804.812 16.9453 804.996 16.7549 805.11 16.5205V15.4365H804.402C803.296 15.4365 802.742 15.7604 802.742 16.4082C802.742 16.6914 802.837 16.9128 803.025 17.0723C803.214 17.2318 803.457 17.3115 803.753 17.3115ZM808.279 12.7168L808.304 13.3027C808.691 12.847 809.214 12.6191 809.871 12.6191C810.61 12.6191 811.113 12.9023 811.38 13.4688C811.556 13.2148 811.784 13.0098 812.063 12.8535C812.347 12.6973 812.68 12.6191 813.064 12.6191C814.223 12.6191 814.812 13.2327 814.832 14.46V18H813.929V14.5137C813.929 14.1361 813.842 13.8545 813.67 13.6689C813.497 13.4801 813.208 13.3857 812.801 13.3857C812.465 13.3857 812.187 13.4867 811.966 13.6885C811.744 13.887 811.616 14.1556 811.58 14.4941V18H810.672V14.5381C810.672 13.7699 810.296 13.3857 809.544 13.3857C808.951 13.3857 808.546 13.638 808.328 14.1426V18H807.425V12.7168H808.279Z" fill="#808080"/>
</g>
<defs>
<filter id="filter0_d" x="0" y="0" width="1160" height="38" filterUnits="userSpaceOnUse" color-interpolation-filters="sRGB">
<feFlood flood-opacity="0" result="BackgroundImageFix"/>
<feColorMatrix in="SourceAlpha" type="matrix" values="0 0 0 0 0 0 0 0 0 0 0 0 0 0 0 0 0 0 127 0"/>
<feOffset dy="4"/>
<feGaussianBlur stdDeviation="2"/>
<feColorMatrix type="matrix" values="0 0 0 0 0 0 0 0 0 0 0 0 0 0 0 0 0 0 0.1 0"/>
<feBlend mode="normal" in2="BackgroundImageFix" result="effect1_dropShadow"/>
<feBlend mode="normal" in="SourceGraphic" in2="effect1_dropShadow" result="shape"/>
</filter>
</defs>
</svg>
