<?xml version="1.0" encoding="UTF-8"?> <svg xmlns="http://www.w3.org/2000/svg" id="图层_1" data-name="图层 1" viewBox="0 0 1024 1024"><defs><style>.cls-1{fill:#f1f2f2;}.cls-2{fill:none;stroke:#000;stroke-miterlimit:10;stroke-width:1.86px;}.cls-3{fill:#221e1f;}</style></defs><polygon class="cls-1" points="815.69 208.18 513.2 512.96 815.69 815.56 815.69 208.18"></polygon><polygon class="cls-1" points="210.16 210.43 208.31 815.56 512.77 509.8 210.16 210.43"></polygon><rect class="cls-2" x="208.31" y="208.18" width="607.39" height="607.39"></rect><polygon class="cls-3" points="511.11 510.97 208.52 814.62 208.71 814.81 208.93 815.03 512.9 512.75 511.11 510.97"></polygon><polygon class="cls-3" points="512.89 512.77 815.48 209.12 815.29 208.93 815.07 208.71 511.1 510.99 512.89 512.77"></polygon><polygon class="cls-3" points="512.89 510.97 815.48 814.62 815.29 814.81 815.07 815.03 511.1 512.75 512.89 510.97"></polygon><polygon class="cls-3" points="511.11 512.77 208.52 209.12 208.71 208.93 208.93 208.71 512.9 510.99 511.11 512.77"></polygon></svg> 